<svg xmlns="http://www.w3.org/2000/svg" width="25" height="29" viewBox="0 0 25 29"><defs><linearGradient id="lgoza" x1="4.25" x2="24.85" y1="0" y2="29.12" gradientUnits="userSpaceOnUse"><stop offset="0" stop-color="#2ec73d"/><stop offset=".52" stop-color="#7c64c2"/><stop offset="1" stop-color="#b31db6"/></linearGradient></defs><g><g><path fill="url(#lgoza)" d="M12.775 0a12.075 12.075 0 0 1 12.074 12.075c0 9.233-7.813 17.046-12.074 17.046C8.513 29.121.7 21.308.7 12.075A12.075 12.075 0 0 1 12.775 0zm0 2.841a9.234 9.234 0 0 0-9.234 9.234c0 6.81 5.917 14.205 9.234 14.205s9.233-7.395 9.233-14.205a9.233 9.233 0 0 0-9.233-9.234zm7.813 9.944c.227 0 .453.011.675.035a6.392 6.392 0 0 1-7.032 7.032 6.392 6.392 0 0 1 6.357-7.067zm-13.025.553a6.393 6.393 0 0 1 3.756 6.514 6.392 6.392 0 0 1-7.032-7.031 6.391 6.391 0 0 1 3.276.518z"/></g></g></svg>