<svg xmlns="http://www.w3.org/2000/svg" viewBox="0 0 297.92 850.02"><defs><style>.cls-1{fill:#b28d8a;}.cls-2{fill:#bc8183;}.cls-3{fill:#ceab9e;}.cls-4{fill:#da9d95;}.cls-5{fill:#74839a;}.cls-6{fill:#a37173;}.cls-7{fill:#819fb1;}.cls-8{fill:#bb8981;}.cls-9{fill:#fff;}.cls-10,.cls-11,.cls-12,.cls-13,.cls-14,.cls-15{fill:none;}.cls-10{stroke:#a37173;}.cls-10,.cls-11,.cls-13,.cls-14{stroke-miterlimit:10;}.cls-11{stroke:#bc8183;}.cls-12,.cls-15{stroke:#000;stroke-linecap:round;stroke-linejoin:round;}.cls-13{stroke:#b28d8a;}.cls-14{stroke:#74839a;}.cls-15{stroke-width:0.5px;}</style></defs><g id="Слой_2" data-name="Слой 2"><g id="Слой_11" data-name="Слой 11"><path class="cls-1" d="M297.37,841.23c.11,3.54,0,6.29,0,6.29l-19.49.1a49.56,49.56,0,0,0,1.39-6.39Z"/><path class="cls-1" d="M297.37,841.23h-18.1a29.22,29.22,0,0,0,.35-5.19c-.2-5.2-4.84-8.13-11-9.1s-9.48-1.16-12.19.56-25.55-2.3-33.29-3.47-18.58-3.47-26.16-3.47-10,6.72-10.12,6.93l.49-26.1h10.63a14.31,14.31,0,0,0-.6,8.55c.41,1.59,1.07,4.19,3.3,5.76,3.6,2.52,9.21.83,12.32-1.73s4.34-6.3,5-8.4a21.11,21.11,0,0,0,.84-4.18h8.85c.28.47.68,1.12,1.17,1.9,2.46,3.94,5,8,7.1,10.14,2.93,3,6.53,3.67,11.79,4.63,12.5,2.28,23.33-.35,34.79.89a15.4,15.4,0,0,1,6.57,2.07c2.29,1.4,3.87,3.39,5.72,5.91S297.23,836.17,297.37,841.23Z"/><path class="cls-2" d="M275.43,487.28a41.77,41.77,0,0,0-1.09-6.22s2.81-9.07,8.42-.13c.29,3.17-.14,5.73-1.81,7.18s-3.76,1.4-5.44,1.21C275.52,488.67,275.49,488,275.43,487.28Z"/><path class="cls-3" d="M279.62,836a29.22,29.22,0,0,1-.35,5.19h-92.7l.25-13.73h0c.08-.21,2.66-6.93,10.12-6.93s18.42,2.3,26.16,3.47,30.58,5.2,33.29,3.47,6-1.53,12.19-.56S279.42,830.84,279.62,836Z"/><path class="cls-3" d="M186.57,841.23h92.7a49.56,49.56,0,0,1-1.39,6.39l-91.44.45Z"/><path class="cls-2" d="M275.43,487.28c.06.7.09,1.39.08,2a10,10,0,0,1-.52,3.31,5.56,5.56,0,0,1-1.78,2.58c-2.29,1.76-5.5.89-6.31.65a16.26,16.26,0,0,0,.4-1.72,15.63,15.63,0,0,0,.23-2.73,24.84,24.84,0,0,0-.61-4.86,30.76,30.76,0,0,0-1-3.91S272.32,478.77,275.43,487.28Z"/><path class="cls-2" d="M255.43,490.1a30.34,30.34,0,0,0-1.63-6.41l.28,0s9.87-.61,13.44,7.76h0a15.63,15.63,0,0,1-.23,2.73,16.26,16.26,0,0,1-.4,1.72c-.21.74-.44,1.38-.65,2-.72,2-1.1,3-2,3.9a7,7,0,0,1-3.16,1.73,9.4,9.4,0,0,1-6.14-.43h0c.17-.62.35-1.33.53-2.14a28.78,28.78,0,0,0,.25-5.48C255.65,493.51,255.54,491.57,255.43,490.1Z"/><path class="cls-2" d="M238.19,479.78s5.27-1.16,8.06,2.58,5.49,5.69,6,7,3.42,6,3.42,6a28.78,28.78,0,0,1-.25,5.48c-.18.81-.36,1.52-.53,2.14-.89,3.11-1.7,3.91-2.08,4.17-1.89,1.3-4.33.86-5.2.7-1-.18-3.14-.56-4.21-2.1-1.34-1.93-.15-4.37.37-7.21a19.57,19.57,0,0,0-.71-9.39c-.25-.83-.56-1.71-.94-2.63l-4.46-6.41Z"/><path class="cls-4" d="M267.52,491.41c-3.57-8.37-13.44-7.76-13.44-7.76l-.28,0a30.34,30.34,0,0,1,1.63,6.41c.11,1.47.22,3.41.25,5.29,0,0-2.9-4.64-3.42-6s-3.23-3.3-6-7-8.06-2.58-8.06-2.58l-.52.36-.87-1.26-.75.06a16.21,16.21,0,0,1-.82-7.68c.77-3.87.64-4.64,2.58-7.87s1.68-4.51,3.1-10.19c1.36-5.45-.88-7.91-1.06-8.1a36.83,36.83,0,0,0,1.26-9.74c-.07-3.43.06-7.17-.31-13a18.25,18.25,0,0,0,2.27-3.47c1.14-2.2,0-26.07-1.26-29.55a54.47,54.47,0,0,1-3.1-12.39c-.51-4.51.13-6.32.13-12.26s-5.42-39-5.42-39q14.75-1.82,29.49-3.6c2.9,16.67,4.49,31.5,5.39,43.92,1.3,18,1.8,27,1.2,36.87,0,0-.38,6.41.4,32.75a26.59,26.59,0,0,0,.65,5.06l.66,2.3c3.14,10.92,5.26,15.33,7.36,21.74,1.86,5.68,3.79,11.57,4.19,16.17-5.61-8.94-8.42.13-8.42.13a41.77,41.77,0,0,1,1.09,6.22c-3.11-8.51-9.54-4.64-9.54-4.64a30.76,30.76,0,0,1,1,3.91,24.84,24.84,0,0,1,.61,4.86Z"/><path class="cls-2" d="M236.8,478.88l.87,1.26,4.46,6.41c.38.92.69,1.8.94,2.63-5,1.11-7.7-.29-8.75-1-6.73-4.42-4.43-17.86-3.83-20.58,1.45-6.59,2.14-7.92,6.86-15.78a29.8,29.8,0,0,0,2.5-6.74c.18.19,2.42,2.65,1.06,8.1-1.42,5.68-1.17,7-3.1,10.19s-1.81,4-2.58,7.87a16.21,16.21,0,0,0,.82,7.68Z"/><path class="cls-5" d="M227.64,801.39h-4.93v-.07s-.47-8.64-3.91-23.73-2.36-13.55,0-27.1,7-18.58,6.62-28.26.47-13.55-5.76-18.19-5.46,4.64-9.33-10.45-8.52-34.45,0-43,8.81-11.61,8.47-23.23-2.28-35.22-8.47-41-5-5.8-10.84-12.77-.78-36.39,1.54-46.07,17.85-27.33,10.09-42.89S200.65,461.28,190.58,464s2.35-35.09,2.35-35.09l.08-.4a82.67,82.67,0,0,0,25.43,2.39l0,.38c2.92,28.24,5,53.79,6.52,76.1,2.88,42.35,4.07,74.52,4.07,83.64,0,11.16.81,62.14.81,73.45s5.71,85.6,4.08,94.56c-.44,2.38-.53,14.23-.61,30.3,0,5.19,0,9.41,0,12Z"/><path class="cls-2" d="M240.8,422.35a213.65,213.65,0,0,0-2.7-21.85c-.93-5.57-2.27-13-4.1-21.83h0c-.71-16.25-2.6-45.38-2.6-45.38-.1-2.44-.2-4.89-.31-7.33l.61,0,1.73-.21s5.42,33,5.42,39-.64,7.75-.13,12.26a54.47,54.47,0,0,0,3.1,12.39c1.29,3.48,2.4,27.35,1.26,29.55A18.25,18.25,0,0,1,240.8,422.35Z"/><path class="cls-6" d="M268.65,310.15v11.27l-5.74.7q-14.75,1.8-29.49,3.6l-1.73.21-.61,0-3.72-89,.48,0a30.29,30.29,0,0,1,1.94,10.16c.29,6.49,3.09,58.45,4.45,61.74s5.61,5.23,10.06,5.13,6.29.2,10.45,0a43.36,43.36,0,0,0,8.17-1.07c1.71-.39,5.19-2.81,5.19-2.81l.55,0Z"/><path class="cls-7" d="M187.31,801.39h-2.82c-.41-6.13-1-15.37-1.53-26.66-.44-8.91-.67-15.22-.8-18.3-.47-10.56-1.35-30.35-3.18-54.79-.38-5.07-1.55-20.57-3.67-41.64l.85-.09c3-1.07,4.13-2.49,4.55-3.6.82-2.14-.59-3.73-.09-7.24a12.87,12.87,0,0,1,1.44-4.26c2.79-5.59,6.91-4.82,9.3-9.29,2.77-5.19,0-11.49-.2-12a14.27,14.27,0,0,0-2.27-3.53l-.12-.24c-11.09,5.82-13.83,36.56-13.83,36.56q-.28-2.84-.6-5.79c-1.17-11.15-1.78-15.92-2.6-23.24-5.53-49.35-3.23-59.16-8.37-94.09-.24-1.68-4.39-29.45-8.51-42.73,0,0,.88-1.26,2.63-4.36s-3.1-8.51-6.5-12.37,2.63-6,4-14.92-4.64-8.71-7.94-10.64-7-2.32-13-3.08-8.71,1.14-13.74,5.59-13.15-9.57-13.15-9.57h0c4-7.85,6.72-14.78,6.86-15.14,1.61,0,3.21-.12,4.82-.22,34.94-2.29,53.07-3.48,66.38.25q.78.21,1.53.45a42,42,0,0,0,6.25,2.08l-.08.4s-12.41,37.82-2.35,35.09,12.78,5.05,20.54,20.61-7.76,33.22-10.09,42.89-7.35,39.1-1.54,46.07,4.64,7,10.84,12.77,8.12,29.42,8.47,41,0,14.71-8.47,23.23-3.88,27.87,0,43,3.09,5.8,9.33,10.45,5.37,8.52,5.76,18.19-4.26,14.71-6.62,28.26-3.44,12,0,27.1,3.91,23.73,3.91,23.73v.07h-35.4Z"/><path class="cls-8" d="M222.71,340.36c1.16,5.61.58,13.36-4.64,21.49s-9.49,15-6.39,17.77.77,15.9.39,16.68-1,3.67.19,8.13,4.07,8.13,4.65,9.87.58,7,.58,7l.95,9.66A82.67,82.67,0,0,1,193,428.53a42,42,0,0,1-6.25-2.08q-.75-.24-1.53-.45l.13-.48s16.84-15.09,12.77-25.74-3.68-21.29-3.68-29,4.65-15.49,8.13-21.29,9.1-15.49,8.71-17-2.32-10.29,3.29-6.5S221.55,334.75,222.71,340.36Z"/><path class="cls-1" d="M197.94,801.39h20.85a21.11,21.11,0,0,1-.84,4.18c-.65,2.1-1.84,5.81-5,8.4s-8.72,4.25-12.32,1.73c-2.23-1.57-2.89-4.17-3.3-5.76A14.31,14.31,0,0,1,197.94,801.39Z"/><path class="cls-5" d="M191.16,623.52c.23.51,3,6.81.2,12-2.39,4.47-6.51,3.7-9.3,9.29a12.87,12.87,0,0,0-1.44,4.26c-.5,3.51.91,5.1.09,7.24-.42,1.11-1.51,2.53-4.55,3.6l-.85.09c-.12-1.21-.24-2.44-.37-3.69,0,0,2.74-30.74,13.83-36.56l.12.24A14.27,14.27,0,0,1,191.16,623.52Z"/><path class="cls-2" d="M185.66,93.34a36.12,36.12,0,0,0-1.46-18.11c-.39-1.06-.81-2-1.25-3,0,0,.55-.2,1.6-1.8s1.45-1.45,4.21-2a7.56,7.56,0,0,1,1.43-.18c1.05,0,.82.69,2,1.49,1.51,1.05,1.45,4.2,1.76,6.41s-1.66,9.41-2.21,13.07-3.55,5-4.71,4.66c-.78-.24-1.15-.64-1.34-.53Z"/><path class="cls-4" d="M182.64,155.45a36.15,36.15,0,0,1-6.54,8.15,38.28,38.28,0,0,1-18.33,9.22,43.26,43.26,0,0,1-13.38.75,46,46,0,0,1-18-5.93,22.5,22.5,0,0,1-6.76-5,20.65,20.65,0,0,1-3-4.35l.29-.26s3.07-5,3.77-9.47a74.28,74.28,0,0,0,1.2-11.17c0-1.59-.09-4.7-.21-7.1a32.59,32.59,0,0,0,16.74,14.61c2.61,1,11.92,4.4,20.37.1,4.15-2.11,6.84-5.45,9.58-8.86a48.52,48.52,0,0,0,6-9.56c-.12,2.69-.24,6.77-.09,10.31.25,5.86,1.2,7,2.31,10.92s6.34,7.42,6.34,7.42v.26Z"/><path d="M163.88,82.4c.27,1.94-.52,3.64-1.75,3.81S159.68,85,159.42,83s.52-3.64,1.75-3.81S163.62,80.47,163.88,82.4Z"/><path class="cls-9" d="M158.46,110.81c.07.69.76,8.21-4.91,13a12.8,12.8,0,0,1-18.88-2l-3.56-5.1a42.21,42.21,0,0,0,6.85.69,33.56,33.56,0,0,0,9.48-.91,25.15,25.15,0,0,0,11-5.64Z"/><path class="cls-5" d="M151,473.73c3.4,3.86,8.24,9.28,6.5,12.37s-2.63,4.36-2.63,4.36c-1.34-4.29-2.67-7.07-3.87-7-.84.06-1.43,1.51-3.09,9a318.13,318.13,0,0,0-6.06,37.2c-.22,2.5-.41,4.79-.59,6.88h0c-1.62,4-2.88,7.11-3.82,9.3a13.08,13.08,0,0,0-1.07,3.49c-.22,1.45,0,2.42-.48,5-.56,3-2.34,4.63-5.74,6.49-.56.31-1.17.62-1.83.95l-1.42.7-1.33.64c-6.45,3.09-6.71-7-6.71-7s6.71-14.71,9.29-21.16-2.58-9.55-2.58-13.16.26-9.55,2.58-13.77a45,45,0,0,1,4.41-7.28,29.85,29.85,0,0,1,4.88-4.51c2.94-2.7,7.1-19.1.52-23.54-3.54-2.39-6.94.92-12.76.63s-14.18-4.2-23.86-21.83c2.11-3.33,4.1-7,5.85-10.44h0s8.11,14,13.15,9.57,7.74-6.34,13.74-5.59,9.67,1.14,13,3.08,9.3,1.74,7.94,10.64S147.59,469.86,151,473.73Z"/><path class="cls-2" d="M169.58,60.33c-2.51.87-2.42.09-5,0s-5.32-1.45-9.58-2.62-4-.19-6.19.49a18.18,18.18,0,0,1-6.58,1c-2.62-.1-7.55-1-11.52-1.46s-3.77,1.26-5.52,2.62-8.71,3.29-10.74,3.87-9.51-.68-9.51-.68h0a9.64,9.64,0,0,1,1.82-5.85c1.2-1.41,4.81.95,9.77.6s9-3.36,11.87-4.41,10.21,1.9,12.42,1.7,6.66-3.85,11.22-1.05,12.4,4.42,13.59,4.44,2.33-.64,4.34-.69a11.85,11.85,0,0,1,3.75.46S172.1,59.46,169.58,60.33Z"/><path class="cls-2" d="M139,100.88c1.45-2,1.7-13.86,1.7-13.86l.36-.15c.76,2,4.47,11.88,4.47,13.72s-.09,4.2-.64,5.31l-.44-.19S137.55,102.91,139,100.88Z"/><path class="cls-7" d="M101.32,451.55c9.68,17.63,18,21.54,23.86,21.83s9.22-3,12.76-.63c6.58,4.44,2.42,20.84-.52,23.54a29.85,29.85,0,0,0-4.88,4.51,45,45,0,0,0-4.41,7.28c-2.32,4.22-2.58,10.15-2.58,13.77s5.16,6.71,2.58,13.16-9.29,21.16-9.29,21.16.26,10.06,6.71,7l1.33-.64,1.42-.7c.66-.33,1.27-.64,1.83-.95,0,0,.84,2.09.65,8.09s-1.94,8.32-3.87,11.42S115.68,592.94,115.68,597s4.84,3.87,10.45,5.22,7.36,4.32,7.36,4.32l.84.16c-1.81,12.42-3.69,23.65-5.06,32.19,0,0-1.41-18.33-14.63-27.34-1.19,2.27-4,8.18-2.77,13.67A7.58,7.58,0,0,0,113,628c1.6,2.15,4.56,2.54,7.68,4.28,4.13,2.31,1.8,17.31-6,20.66s-6.9,7-5,17.81,3.32,14.19,5,20.64-6.38,36.91-8.68,35.1.24-17-5.25-12.13-5.87,31.23-1.64,41.81,4.8,9.8,6.35,14.71a12,12,0,0,1-2.73,11.61c-2.22,2.58-5-10.06-6.91,3.87s5,22.77,5,22.77H50.31c.87-11.76,2.16-29.53,3.66-51.31,1.7-24.63,2.17-32.63,3.26-46.83,2.19-28.36,4.24-47,5.29-57.82.53-5.42,1-10.46,1.34-15.25,0,0,0-.11,0-.31s0-.34,0-.51l0-.33c.31-3.11,1.6-11.53,6.63-13,4.85-1.41,8-1,9.45-2.55a4.56,4.56,0,0,0,.88-1.87c1.37-4.72-.61-10.21-1.73-12.81-10.81,3.65-13.79,14.57-14.61,21,1.68-27.9,1-48.91,2.43-90.78.88-26.07,2.66-64,6.78-110.69,13.36-1.12,26.84.32,40.25-.06-.14.36-2.89,7.29-6.86,15.14C105.42,444.57,103.43,448.22,101.32,451.55Z"/><path class="cls-5" d="M141.25,536.55c-.86,9.88-1.31,15.46-1.52,19.41-.85,16.81-3.07,34.77-5.4,50.75l-.84-.16s-1.75-3-7.36-4.32-10.45-1.16-10.45-5.22,9.29-13.55,11.23-16.65,3.67-5.42,3.87-11.42-.65-8.09-.65-8.09c3.4-1.86,5.18-3.5,5.74-6.49.49-2.6.26-3.57.48-5a13.08,13.08,0,0,1,1.07-3.49c.94-2.19,2.2-5.3,3.82-9.3Z"/><path class="cls-5" d="M114.64,611.56c13.22,9,14.63,27.34,14.63,27.34-4.23,26.43-11.07,74.62-22.36,170.24h-6.13s-6.89-8.83-5-22.77,4.69-1.29,6.91-3.87a12,12,0,0,0,2.73-11.61c-1.55-4.91-2.12-4.13-6.35-14.71s-3.85-36.91,1.64-41.81,3,10.32,5.25,12.13,10.42-28.64,8.68-35.1-3.21-9.8-5-20.64-2.76-14.45,5-17.81,10.14-18.35,6-20.66c-3.12-1.74-6.08-2.13-7.68-4.28a7.58,7.58,0,0,1-1.1-2.77C110.66,619.74,113.45,613.83,114.64,611.56Z"/><path d="M125.41,88c.27,1.93-.52,3.64-1.75,3.81s-2.45-1.26-2.71-3.2.52-3.63,1.75-3.8S125.15,86.08,125.41,88Z"/><path class="cls-2" d="M167.57,129.79c1.4-1.51,4.58-3.83,6.94-5.9,0,.43-.08,1.39-.14,2.65a48.52,48.52,0,0,1-6,9.56c-2.74,3.41-5.43,6.75-9.58,8.86-8.45,4.3-17.76.86-20.37-.1a32.59,32.59,0,0,1-16.74-14.61c-.05-1-.11-1.93-.19-2.53a23.13,23.13,0,0,0,4.41,3.37c3.71,2.3,9.67,5.56,11.87,6s6.36,1.9,9.62,1.65,8.41-1.1,10.62-2.55S165.47,132,167.57,129.79Z"/><path class="cls-2" d="M109.71,107.12c-.3-.52-.62.77-1.59,1.18-1.2.5-1.15.4-3.35-.55s-1.66-1.5-3.51-3.76-3-4.4-5.21-7.66c-2-3-1.8-6.88-1.6-9.3,0-.2,0-.38,0-.56.2-2.36,3.5-2.86,5.71-2.36s6.31,4.71,6.31,4.71l.13-.3c.46,2.59.9,5.18,1.34,7.81Q108.89,101.76,109.71,107.12Z"/><path class="cls-1" d="M109.58,843c0,3,0,5.77,0,5.77L83,849.1a36.64,36.64,0,0,0,5.36-5.86l20.8-.2Z"/><path class="cls-4" d="M144.89,105.9c.55-1.11.64-3.39.64-5.31s-3.71-11.73-4.47-13.72l-.36.15s-.25,11.82-1.7,13.86,5.45,4.83,5.45,4.83Zm-40-42.38s7.48,1.26,9.51.68,9-2.52,10.74-3.87,1.55-3.1,5.52-2.62,8.9,1.36,11.52,1.46a18.18,18.18,0,0,0,6.58-1c2.22-.68,1.93-1.65,6.19-.49s7,2.52,9.58,2.62,2.52.87,5,0,4.1-1.61,4.1-1.61l.43.1a5.5,5.5,0,0,1,2.26,1.07,8.61,8.61,0,0,0,2.6.76,2.92,2.92,0,0,0,1.32-.43l.8,3.66L183,72.24c.44.94.86,1.93,1.25,3a36.12,36.12,0,0,1,1.46,18.11h0c-.08,0-.13.2-.16.53a96.25,96.25,0,0,1-1.6,12.27c-1.05,4.41-5.51,12.67-6.81,15a12.68,12.68,0,0,1-2.58,2.77c-2.36,2.07-5.54,4.39-6.94,5.9-2.1,2.25-7.36,4.91-9.56,6.36s-7.37,2.3-10.62,2.55-7.42-1.25-9.62-1.65-8.16-3.66-11.87-6a23.13,23.13,0,0,1-4.41-3.37c-.84-.8-1.67-1.7-2.9-2.89a41.73,41.73,0,0,1-7.11-9.57c-1.31-2.55-1.16-5.61-1.56-7.46a3.08,3.08,0,0,0-.21-.68q-.83-5.36-1.72-10.79c-.44-2.63-.88-5.22-1.34-7.81h0a19.71,19.71,0,0,0,1.17-3.35c.3-1.45.65-3.7-1.1-9A43.21,43.21,0,0,1,104.92,64c0-.15,0-.31,0-.46Zm57.22,22.69c1.23-.17,2-1.87,1.75-3.81s-1.47-3.36-2.71-3.19-2,1.87-1.75,3.81S160.9,86.38,162.13,86.21Zm-8.58,37.59c5.67-4.78,5-12.3,4.91-13a25.15,25.15,0,0,1-11,5.64,33.56,33.56,0,0,1-9.48.91,42.21,42.21,0,0,1-6.85-.69l3.56,5.1a12.8,12.8,0,0,0,18.88,2Zm-29.89-32c1.23-.17,2-1.88,1.75-3.81s-1.48-3.36-2.71-3.19-2,1.87-1.75,3.8S122.43,92,123.66,91.82Z"/><path d="M94.32,87s-4.63-6.11-5.83-11.32-1.6-5.11-2.61-8.32-1-8.21-.75-11.82a41.27,41.27,0,0,0-.8-13.07c-1.2-4.56,1.3-15.52,3.26-17.93a16,16,0,0,1,7.56-5.21c2.7-.75,7.86-2.9,13-9.11S122.45.87,126.45.32s9.37,2.2,11.77,2.65a51.92,51.92,0,0,0,19.94-.9c8.76-2.25,15.07,6.16,17.12,8.37S180,19.25,183.4,21a16.32,16.32,0,0,1,8.21,16.67c-1.15,9.42-2,13.93-2.8,14.23s1.7,4.86,1.55,8.81.13,6.09-.17,7.53a7.56,7.56,0,0,0-1.43.18c-2.76.56-3.16.41-4.21,2s-1.6,1.8-1.6,1.8l-1.86-8.36-.8-3.66a2.92,2.92,0,0,1-1.32.43,8.61,8.61,0,0,1-2.6-.76,5.5,5.5,0,0,0-2.26-1.07l-.43-.1a11.85,11.85,0,0,0-3.75-.46c-2,.05-3.16.71-4.34.69s-9-1.63-13.59-4.44-9,.85-11.22,1.05-9.57-2.75-12.42-1.7-6.92,4.06-11.87,4.41-8.57-2-9.77-.6a9.64,9.64,0,0,0-1.82,5.85c0,.15,0,.31,0,.46a43.21,43.21,0,0,0,1.8,12.22c1.75,5.26,1.4,7.51,1.1,9a19.71,19.71,0,0,1-1.17,3.35h0l-.13.3s-4.11-4.21-6.31-4.71-5.51,0-5.71,2.36c0,.18,0,.36,0,.56Z"/><path class="cls-3" d="M45.18,843.67l43.15-.43A36.64,36.64,0,0,1,83,849.1l-37.81.42S45.18,847.55,45.18,843.67Z"/><path class="cls-1" d="M109.58,840.25V843h-.45l-20.8.2c5.37-7.35,9.7-19.76-14.92-26.15A47.62,47.62,0,0,1,86.82,817c5.21.73,11.68,3.57,18.26,8.21a9.18,9.18,0,0,1,2.66,3.78l0,0a29.31,29.31,0,0,1,1.82,9.7.75.75,0,0,1,0,.15v1C109.59,840,109.58,840.13,109.58,840.25Z"/><path class="cls-8" d="M70.49,334.26c2.42-.3,10.39,15.85,6,31.2-1.82,6.4-3.75,6.32-6.34,14.19-2,5.94-.89,14.45-2.44,23.74S55,425,55,425h0a6.72,6.72,0,0,1-2.65-2.44c-1.4-2.32-.82-5-.4-7A140.25,140.25,0,0,0,53.67,401a58.19,58.19,0,0,0,5-5.38c1.29-1.8,5.1-10.84,5.1-10.84s.58-16.25,0-20.64a17.49,17.49,0,0,1,0-5,18.26,18.26,0,0,1,2-5.88C69.63,346,68.49,334.52,70.49,334.26Z"/><path class="cls-5" d="M70.58,623.78c-5,1.47-6.32,9.89-6.63,13,.11-1.53.22-3,.32-4.5s.21-3.2.3-4.77h0c.82-6.38,3.8-17.3,14.61-21,1.12,2.6,3.1,8.09,1.73,12.81a4.56,4.56,0,0,1-.88,1.87C78.54,622.81,75.43,622.37,70.58,623.78Z"/><path class="cls-1" d="M56,820.67a21.6,21.6,0,0,0,2.92-11.53H95.78c2.74,4.22,5,7.87,6.85,10.74,3.42,5.45,4.29,7,5.11,9.13a9.18,9.18,0,0,0-2.66-3.78c-6.58-4.64-13-7.48-18.26-8.21a47.62,47.62,0,0,0-13.41.07,58.62,58.62,0,0,0-19.65,6.75C55,822.12,55.45,821.54,56,820.67Z"/><path class="cls-8" d="M46.15,252.43a21.32,21.32,0,0,0-2.78-11.88,17,17,0,0,0-1.11-1.62c0-2.34.06-4.2.1-4.85.09-1.47-.32-14.54-.68-24.6,0,0,13-23,16-26.29s8.13-10.07,12.48-11.57S81.29,169.06,86.4,168c1.7-.35,18.48-4.13,23.28-6.91a25.88,25.88,0,0,1,6.8-2.82l.15,0a20.65,20.65,0,0,0,3,4.35,22.5,22.5,0,0,0,6.76,5,46,46,0,0,0,18,5.93,43.26,43.26,0,0,0,13.38-.75,38.28,38.28,0,0,0,18.33-9.22,36.15,36.15,0,0,0,6.54-8.15h.29c9.72-.19,27.94.92,45.15,11.66,4.27,2.67,12.46,6.46,17.13,15.63,4.06,8,7.51,14.72,8.42,21.18s9.31,58,9.46,58.9,5.48,42.24,5.56,47.23l-.55,0s-3.48,2.42-5.19,2.81a43.36,43.36,0,0,1-8.17,1.07c-4.16.19-6-.1-10.45,0s-8.71-1.84-10.06-5.13-4.16-55.25-4.45-61.74a30.29,30.29,0,0,0-1.94-10.16l-.48,0,3.72,89c.11,2.44.21,4.89.31,7.33,0,0,1.89,29.13,2.6,45.38.21,4.76.33,8.41.26,9.91-.3,6.61,1.8,23.74,1.5,31.86s-4.21,9-8.42,9.61c-3.11.45-6.08.72-8.89.87l-.95-9.66s0-5.22-.58-7-3.49-5.42-4.65-9.87-.58-7.36-.19-8.13,2.71-13.94-.39-16.68,1.16-9.65,6.39-17.77,5.8-15.88,4.64-21.49-2.51-10.64-8.13-14.43-3.67,4.95-3.29,6.5-5.22,11.22-8.71,17-8.13,13.55-8.13,21.29-.38,18.39,3.68,29-12.77,25.74-12.77,25.74l-.13.48c-13.31-3.73-31.44-2.54-66.38-.25-1.61.1-3.21.18-4.82.22-13.41.38-26.89-1.06-40.25.06l-1.41.12c-4.5.43-12.68,1.36-17.38-1.17h0s11.21-12.29,12.75-21.58.49-17.8,2.44-23.74c2.59-7.87,4.52-7.79,6.34-14.19,4.36-15.35-3.61-31.5-6-31.2-2,.26-.86,11.73-4.71,19.07a18.26,18.26,0,0,0-2,5.88,17.49,17.49,0,0,0,0,5c.58,4.39,0,20.64,0,20.64s-3.81,9-5.1,10.84a58.19,58.19,0,0,1-5,5.38,63.64,63.64,0,0,1,2.07-12.15c4-13.42,1.61-43.62,7.22-103.37.06-.65.13-2.16.2-4.3.34-9.68.77-32.09,1-44.32h-.35s-2.71,3.35-4.07,5.55A20.33,20.33,0,0,0,57,252.36c-.12,4.32,0,8.2,1.17,11.55s.58,10.45,0,12.71-3.81,5.35-5,5.29-1.48-1.74-2.32-4.84,0-9.16,0-11.1.13-10-1.61-13.54-3.06,0-3.06,0Z"/><path class="cls-3" d="M88.33,843.24l-43.15.43V843c0-4.31,2.76-10.49,3.11-11.11.19-.33,1.68-2.59,3.39-5.1.88-1.29,1.55-2.25,2.08-3a58.62,58.62,0,0,1,19.65-6.75C98,823.48,93.7,835.89,88.33,843.24Z"/><path class="cls-2" d="M42.21,254.61l-.16-.07.16-.4s0-9.19,0-15.21a17,17,0,0,1,1.11,1.62,21.32,21.32,0,0,1,2.78,11.88c0,1.25-.15,2.33-.23,3.14,0,0-.27,2.69-1.06,12.83,0,0,0,0,0,0C43,272.32,38,281.3,28.7,285.21c-2.45,1-6.52,2.54-10.41,1a6.81,6.81,0,0,1-2.07-1.3,15.19,15.19,0,0,1-2.75-3.49c-4-6.61-11.52-22.94-10.92-32.85.13-2.14.45-5.55.87-9.61a23.19,23.19,0,0,0,12.77,21.35A22,22,0,0,0,42.21,254.61Z"/><path class="cls-4" d="M35.72,131.48c1.78-3.33,8.5-7.19,8.5-7.19V124a8.14,8.14,0,0,0-2.41-1.54c-1.87-.6-3.87.93-4.26,1.22a6.56,6.56,0,0,0-2.39,3.81,6.67,6.67,0,0,0,.4,4Zm6.33,123.06L3.42,238.93C5,224.15,7.84,200.91,8,200.32c.15-.76,6.46-41,6.46-41s-.75-6.76-2.4-9.17-4.36-9.76-4.36-12,.75-18,.75-18-.15-4.51-.45-6.31S3.69,102.2,2.52,98.29.15,91.53.6,89.28s.9-3.46,1.8-3.91a3.78,3.78,0,0,1,2.86,0c.9.3,1.8,2.41,2.55,3.61s1.2,4.51,2,5.86,3,8,3.6,9.77,1.81,8.26,3.46,8.86,2.25-.9,2.7-1.65.15-12.17.15-12.17L18.63,81.17l.15-5.86,1.65-2.11S23,71.85,24,73.2a13.79,13.79,0,0,1,1.23,4.08h0c-.06-.43-.85-5.65,0-6.85s1.55-2.56,2.8-2.36,2.7.2,3.21,2.86,3.23,16.58,3.45,19.73,1,11.5,1,14a56.54,56.54,0,0,0,.82,7.21s3.46-8,4.21-13.14S42.13,86.91,43,83.68s1-5.41,2.7-6.62,3.76-1.72,4.21-1.27S49.5,90.44,49.2,92s-.91,19.39-.68,22.17.53,7.81.83,8,1.42-.6,2.63-1.2a41.23,41.23,0,0,0,6.08-3.83c1.13-1,2.7-2.78,4.81-3s3.83-.9,5.11-.07,2.7,2.48,2,3.83S57.68,128.3,56.63,130.4s-2.63,7.07-3.53,9.77-4.28,11.27-8,14.2c-2.42,1.89-3.12,1.81-3.38,2.57L35,157.2s-3.11,1.55,0,2.77,6.35,2.27,6.35,2.27c-.17,8.92-.27,33.4-.14,35.63.05.94.24,5.76.45,11.61.36,10.06.77,23.13.68,24.6,0,.65-.07,2.51-.1,4.85,0,6,0,15.21,0,15.21Z"/><path class="cls-6" d="M35,157.2l6.66-.26a12.76,12.76,0,0,0-.22,2.46c0,.51-.06,1.5-.09,2.84,0,0-3.24-1-6.35-2.27S35,157.2,35,157.2Z"/><path class="cls-6" d="M34.84,310.08c2.14-1.4,5-4.37,5.37-6.65,1.56-8.56,3.08-14.54,3.83-24.49.32-4.18.59-7.66.82-10.53,0,0,0,0,0,0,.79-10.14,1.06-12.83,1.06-12.83.08-.81.19-1.89.23-3.14h0s1.32-3.55,3.06,0S50.84,264,50.84,266s-.83,8,0,11.1,1.1,4.78,2.32,4.84,4.46-3,5-5.29,1.16-9.36,0-12.71-1.29-7.23-1.17-11.55a20.33,20.33,0,0,1,2.71-9.93c1.36-2.2,4.07-5.55,4.07-5.55h.35c-.23,12.23-.66,34.64-1,44.32H63l-3.41,4.91s-8.31,10.62-10.32,13.62C47.48,302.36,37.35,308.57,34.84,310.08Z"/><path class="cls-6" d="M41.81,122.43A8.14,8.14,0,0,1,44.22,124v.32s-6.72,3.86-8.5,7.19l-.16,0a6.67,6.67,0,0,1-.4-4,6.56,6.56,0,0,1,2.39-3.81C37.94,123.36,39.94,121.83,41.81,122.43Z"/><path class="cls-6" d="M18.29,286.19c3.89,1.56,8,0,10.41-1C38,281.3,43,272.32,44.86,268.41c-.23,2.87-.5,6.35-.82,10.53-.75,9.95-2.27,15.93-3.83,24.49-.41,2.28-3.23,5.25-5.37,6.65l-.56.34c-2.18,1.2-4.36,0-6.16-1s-4.06-4.73-5.26-6.16-3.61-8-4.88-10.36-1.79-8-1.79-8l0,0A6.81,6.81,0,0,0,18.29,286.19Z"/><path class="cls-4" d="M16.19,260.29A23.19,23.19,0,0,1,3.42,238.94h0l38.63,15.61.16.07A22,22,0,0,1,16.19,260.29Z"/><path class="cls-10" d="M41.68,156.94,35,157.2s-3.11,1.55,0,2.77,6.35,2.27,6.35,2.27"/><path class="cls-10" d="M46.17,252.43s1.32-3.55,3.06,0S50.84,264,50.84,266s-.83,8,0,11.1,1.1,4.78,2.32,4.84,4.46-3,5-5.29,1.16-9.36,0-12.71-1.29-7.23-1.17-11.55a20.33,20.33,0,0,1,2.71-9.93c1.36-2.2,4.07-5.55,4.07-5.55"/><path class="cls-10" d="M227.84,236.91a30.29,30.29,0,0,1,1.94,10.16c.29,6.49,3.09,58.45,4.45,61.74s5.61,5.23,10.06,5.13,6.29.2,10.45,0a43.36,43.36,0,0,0,8.17-1.07c1.71-.39,5.19-2.81,5.19-2.81"/><path class="cls-11" d="M239.84,445.09h0c.18.19,2.42,2.65,1.06,8.1-1.42,5.68-1.17,7-3.1,10.19s-1.81,4-2.58,7.87a16.21,16.21,0,0,0,.82,7.68c.17.53.3.84.3.84"/><path class="cls-12" d="M3.42,238.93C5,224.15,7.84,200.91,8,200.32c.15-.76,6.46-41,6.46-41s-.75-6.76-2.4-9.17-4.36-9.76-4.36-12,.75-18,.75-18-.15-4.51-.45-6.31S3.69,102.2,2.52,98.29.15,91.53.6,89.28s.9-3.46,1.8-3.91a3.78,3.78,0,0,1,2.86,0c.9.3,1.8,2.41,2.55,3.61s1.2,4.51,2,5.86,3,8,3.6,9.77,1.81,8.26,3.46,8.86,2.25-.9,2.7-1.65.15-12.17.15-12.17L18.63,81.17l.15-5.86,1.65-2.11S23,71.85,24,73.2a13.79,13.79,0,0,1,1.23,4.08,59.89,59.89,0,0,1,1.17,8.84c0,9.36,1,8.42,1.36,20.59.09,3,.13,5.52.15,7.21"/><path class="cls-12" d="M44.86,268.41C43,272.32,38,281.3,28.7,285.21c-2.45,1-6.52,2.54-10.41,1a6.81,6.81,0,0,1-2.07-1.3,15.19,15.19,0,0,1-2.75-3.49c-4-6.61-11.52-22.94-10.92-32.85.13-2.14.45-5.55.87-9.61"/><path class="cls-12" d="M42.21,254.14s0-9.19,0-15.21c0-2.34.06-4.2.1-4.85.09-1.47-.32-14.54-.68-24.6-.21-5.85-.4-10.67-.45-11.61-.13-2.23,0-26.71.14-35.63,0-1.34.06-2.33.09-2.84a12.76,12.76,0,0,1,.22-2.46c.26-.76,1-.68,3.38-2.57,3.76-2.93,7.14-11.49,8-14.2s2.48-7.66,3.53-9.77S69.33,119.21,70,117.86s-.76-3-2-3.83-3-.15-5.11.07-3.68,2-4.81,3A41.23,41.23,0,0,1,52,120.94c-1.21.6-2.33,1.35-2.63,1.2s-.61-5.18-.83-8,.37-20.59.68-22.17,1.12-15.77.67-16.22-2.55.07-4.21,1.27-1.87,3.39-2.7,6.62-1.43,9.91-2.18,15.1-4.21,13.14-4.21,13.14a56.54,56.54,0,0,1-.82-7.21c0-2.55-.75-10.89-1-14s-3-17.08-3.45-19.73-2-2.66-3.21-2.86-1.9,1.11-2.8,2.36-.07,6.42,0,6.85a.08.08,0,0,1,0,0"/><path class="cls-12" d="M34.84,310.08c2.14-1.4,5-4.37,5.37-6.65,1.56-8.56,3.08-14.54,3.83-24.49.32-4.18.59-7.66.82-10.53,0,0,0,0,0,0,.79-10.14,1.06-12.83,1.06-12.83.08-.81.19-1.89.23-3.14a21.32,21.32,0,0,0-2.78-11.88,17,17,0,0,0-1.11-1.62"/><path class="cls-12" d="M16.19,284.93s.51,5.66,1.79,8,3.68,8.94,4.88,10.36,3.45,5.19,5.26,6.16,4,2.18,6.16,1"/><path class="cls-10" d="M35.56,131.46a6.67,6.67,0,0,1-.4-4,6.56,6.56,0,0,1,2.39-3.81c.39-.29,2.39-1.82,4.26-1.22A8.14,8.14,0,0,1,44.22,124"/><path class="cls-12" d="M44.22,124.29s-6.72,3.86-8.5,7.19c-.06.11-.11.21-.16.32"/><path class="cls-12" d="M41.68,209.48s13-23,16-26.29,8.13-10.07,12.48-11.57S81.29,169.06,86.4,168c1.7-.35,18.48-4.13,23.28-6.91a25.88,25.88,0,0,1,6.8-2.82l.15,0a20.65,20.65,0,0,0,3,4.35,22.5,22.5,0,0,0,6.76,5,46,46,0,0,0,18,5.93,43.26,43.26,0,0,0,13.38-.75,38.28,38.28,0,0,0,18.33-9.22,36.15,36.15,0,0,0,6.54-8.15h.29c9.72-.19,27.94.92,45.15,11.66,4.27,2.67,12.46,6.46,17.13,15.63,4.06,8,7.51,14.72,8.42,21.18s9.31,58,9.46,58.9,5.48,42.24,5.56,47.23v11.37l-5.74.7q-14.75,1.8-29.49,3.6l-1.73.21"/><path class="cls-12" d="M63.86,637.93c-.37,4.79-.81,9.83-1.34,15.25-1.05,10.8-3.1,29.46-5.29,57.82-1.09,14.2-1.56,22.2-3.26,46.83-1.5,21.78-2.79,39.55-3.66,51.31h56.6C118.2,713.52,125,665.33,129.27,638.9c1.37-8.54,3.25-19.77,5.06-32.19,2.33-16,4.55-33.94,5.4-50.75.21-4,.66-9.53,1.52-19.41.18-2.09.37-4.38.59-6.88a318.13,318.13,0,0,1,6.06-37.2c1.66-7.48,2.25-8.93,3.09-9,1.2-.09,2.53,2.69,3.87,7,4.12,13.28,8.27,41.05,8.51,42.73,5.14,34.93,2.84,44.74,8.37,94.09.82,7.32,1.43,12.09,2.6,23.24q.32,3,.6,5.79c.13,1.25.25,2.48.37,3.69,2.12,21.07,3.29,36.57,3.67,41.64,1.83,24.44,2.71,44.23,3.18,54.79.13,3.08.36,9.39.8,18.3.55,11.29,1.12,20.53,1.53,26.66h48.87c0-2.63,0-6.85,0-12,.08-16.07.17-27.92.61-30.3,1.63-9-4.08-83.24-4.08-94.56s-.81-62.29-.81-73.45c0-9.12-1.19-41.29-4.07-83.64-1.52-22.31-3.6-47.86-6.52-76.1"/><path class="cls-12" d="M63.92,637.11c0,.17,0,.34,0,.51"/><path class="cls-12" d="M64.57,627.51c-.09,1.57-.19,3.15-.3,4.77s-.21,3-.32,4.5"/><path class="cls-12" d="M73.78,426h0c-4.12,46.68-5.9,84.62-6.78,110.69-1.4,41.87-.75,62.88-2.43,90.78"/><path class="cls-12" d="M107.74,829a9.18,9.18,0,0,0-2.66-3.78c-6.58-4.64-13-7.48-18.26-8.21a47.62,47.62,0,0,0-13.41.07,58.62,58.62,0,0,0-19.65,6.75l0,0"/><path class="cls-12" d="M109.58,838.75c0-1.41,0-2.53,0-3a23.54,23.54,0,0,0-1.81-6.75"/><path class="cls-12" d="M109.58,839.88v-1"/><path class="cls-12" d="M58.91,809.14A21.6,21.6,0,0,1,56,820.67c-.54.87-1,1.45-2.23,3.17-.53.74-1.2,1.7-2.08,3-1.71,2.51-3.2,4.77-3.39,5.1-.35.62-3.12,6.8-3.11,11.11v.63c0,3.88,0,5.85,0,5.85L83,849.1l26.6-.29s0-2.77,0-5.77v-2.79"/><path class="cls-12" d="M45.18,843.67l43.15-.43,20.8-.2"/><path class="cls-12" d="M95.78,809.14c2.74,4.22,5,7.87,6.85,10.74,3.42,5.45,4.29,7,5.11,9.13l0,0a29.31,29.31,0,0,1,1.82,9.7.75.75,0,0,1,0,.15c0,.34,0,.67,0,1,0,.13,0,.25,0,.37"/><path class="cls-12" d="M186.82,827.5l-.25,13.73-.13,6.84,91.44-.45,19.49-.1s.11-2.75,0-6.29c-.14-5.06-.7-11.73-2.59-14.3s-3.43-4.51-5.72-5.91a15.4,15.4,0,0,0-6.57-2.07c-11.46-1.24-22.29,1.39-34.79-.89-5.26-1-8.86-1.66-11.79-4.63-2.08-2.11-4.64-6.2-7.1-10.14-.49-.78-.89-1.43-1.17-1.9l0-.07"/><polyline class="cls-12" points="187.31 801.32 187.31 801.39 186.82 827.49"/><path class="cls-12" d="M198,801.32l0,.07a14.31,14.31,0,0,0-.6,8.55c.41,1.59,1.07,4.19,3.3,5.76,3.6,2.52,9.21.83,12.32-1.73s4.34-6.3,5-8.4a21.11,21.11,0,0,0,.84-4.18.2.2,0,0,0,0-.07"/><polyline class="cls-12" points="186.44 841.23 186.57 841.23 279.27 841.23 297.37 841.23 297.38 841.23"/><path class="cls-12" d="M34.28,310.42l.56-.34c2.51-1.51,12.64-7.72,14.39-10.35,2-3,10.32-13.62,10.32-13.62L63,281.2"/><path class="cls-12" d="M64.31,228.56s-.06,3.3-.15,8.33c-.23,12.23-.66,34.64-1,44.32-.07,2.14-.14,3.65-.2,4.3-5.61,59.75-3.25,89.95-7.22,103.37A63.64,63.64,0,0,0,53.67,401a140.25,140.25,0,0,1-1.73,14.5c-.42,2-1,4.69.4,7A6.72,6.72,0,0,0,55,425c4.7,2.53,12.88,1.6,17.38,1.17l1.41-.12c13.36-1.12,26.84.32,40.25-.06,1.61,0,3.21-.12,4.82-.22,34.94-2.29,53.07-3.48,66.38.25q.78.21,1.53.45a42,42,0,0,0,6.25,2.08,82.67,82.67,0,0,0,25.43,2.39c2.81-.15,5.78-.42,8.89-.87,4.21-.6,8.12-1.5,8.42-9.61s-1.8-25.25-1.5-31.86c.07-1.5-.05-5.15-.26-9.91-.71-16.25-2.6-45.38-2.6-45.38-.1-2.44-.2-4.89-.31-7.33l-3.72-89,0-.7"/><path class="cls-12" d="M174.94,656.31s2.74-30.74,13.83-36.56a3.84,3.84,0,0,1,.4-.21"/><path class="cls-12" d="M64.27,632.28a31.9,31.9,0,0,1,.3-4.77h0c.82-6.38,3.8-17.3,14.61-21l.3-.1"/><path class="cls-12" d="M114.64,611.56c13.22,9,14.63,27.34,14.63,27.34"/><path class="cls-12" d="M262.91,322.12c2.9,16.67,4.49,31.5,5.39,43.92,1.3,18,1.8,27,1.2,36.87,0,0-.38,6.41.4,32.75a26.59,26.59,0,0,0,.65,5.06l.66,2.3c3.14,10.92,5.26,15.33,7.36,21.74,1.86,5.68,3.79,11.57,4.19,16.17.29,3.17-.14,5.73-1.81,7.18s-3.76,1.4-5.44,1.21"/><path class="cls-12" d="M272.11,473.73a73.72,73.72,0,0,1,2.23,7.33,41.77,41.77,0,0,1,1.09,6.22c.06.7.09,1.39.08,2a10,10,0,0,1-.52,3.31,5.56,5.56,0,0,1-1.78,2.58c-2.29,1.76-5.5.89-6.31.65"/><path class="cls-12" d="M264.44,479a32.77,32.77,0,0,1,1.45,3.61,30.76,30.76,0,0,1,1,3.91,24.84,24.84,0,0,1,.61,4.86,15.63,15.63,0,0,1-.23,2.73,16.26,16.26,0,0,1-.4,1.72c-.21.74-.44,1.38-.65,2-.72,2-1.1,3-2,3.9a7,7,0,0,1-3.16,1.73,9.4,9.4,0,0,1-6.14-.43"/><path class="cls-12" d="M252.82,481s.45,1.12,1,2.65a30.34,30.34,0,0,1,1.63,6.41c.11,1.47.22,3.41.25,5.29a28.78,28.78,0,0,1-.25,5.48c-.18.81-.36,1.52-.53,2.14-.89,3.11-1.7,3.91-2.08,4.17-1.89,1.3-4.33.86-5.2.7-1-.18-3.14-.56-4.21-2.1-1.34-1.93-.15-4.37.37-7.21a19.57,19.57,0,0,0-.71-9.39c-.25-.83-.56-1.71-.94-2.63l-4.46-6.41-.87-1.26"/><path class="cls-12" d="M243.07,489.18c-5,1.11-7.7-.29-8.75-1-6.73-4.42-4.43-17.86-3.83-20.58,1.45-6.59,2.14-7.92,6.86-15.78a29.8,29.8,0,0,0,2.5-6.74,36.83,36.83,0,0,0,1.26-9.74c-.07-3.43.06-7.17-.31-13a213.65,213.65,0,0,0-2.7-21.85c-.93-5.57-2.27-13-4.1-21.83"/><path class="cls-12" d="M114,426h0c-.14.36-2.89,7.29-6.86,15.14-1.75,3.46-3.74,7.11-5.85,10.44C97,458.32,92.26,463.82,88,464"/><path class="cls-11" d="M233.42,325.72s5.42,33,5.42,39-.64,7.75-.13,12.26a54.47,54.47,0,0,0,3.1,12.39c1.29,3.48,2.4,27.35,1.26,29.55a18.25,18.25,0,0,1-2.27,3.47"/><path class="cls-13" d="M83,849.1a36.64,36.64,0,0,0,5.36-5.86c5.37-7.35,9.7-19.76-14.92-26.15"/><path class="cls-13" d="M186.82,827.5h0c.08-.21,2.66-6.93,10.12-6.93s18.42,2.3,26.16,3.47,30.58,5.2,33.29,3.47,6-1.53,12.19-.56,10.84,3.9,11,9.1a29.22,29.22,0,0,1-.35,5.19,49.56,49.56,0,0,1-1.39,6.39"/><path class="cls-14" d="M63.86,637.93s0-.11,0-.31,0-.3,0-.51l0-.33c.31-3.11,1.6-11.53,6.63-13,4.85-1.41,8-1,9.45-2.55a4.56,4.56,0,0,0,.88-1.87c1.37-4.72-.61-10.21-1.73-12.81"/><path class="cls-14" d="M100.78,809.13s-6.89-8.83-5-22.77,4.69-1.29,6.91-3.87a12,12,0,0,0,2.73-11.61c-1.55-4.91-2.12-4.13-6.35-14.71s-3.85-36.91,1.64-41.81,3,10.32,5.25,12.13,10.42-28.64,8.68-35.1-3.21-9.8-5-20.64-2.76-14.45,5-17.81,10.14-18.35,6-20.66c-3.12-1.74-6.08-2.13-7.68-4.28a7.58,7.58,0,0,1-1.1-2.77c-1.21-5.49,1.58-11.4,2.77-13.67"/><path class="cls-14" d="M101.32,451.55c9.68,17.63,18,21.54,23.86,21.83s9.22-3,12.76-.63c6.58,4.44,2.42,20.84-.52,23.54a29.85,29.85,0,0,0-4.88,4.51,45,45,0,0,0-4.41,7.28c-2.32,4.22-2.58,10.15-2.58,13.77s5.16,6.71,2.58,13.16-9.29,21.16-9.29,21.16.26,10.06,6.71,7l1.33-.64,1.42-.7c.66-.33,1.27-.64,1.83-.95,3.4-1.86,5.18-3.5,5.74-6.49.49-2.6.26-3.57.48-5a13.08,13.08,0,0,1,1.07-3.49c.94-2.19,2.2-5.3,3.82-9.3"/><path class="cls-14" d="M133.49,606.55s-1.75-3-7.36-4.32-10.45-1.16-10.45-5.22,9.29-13.55,11.23-16.65,3.67-5.42,3.87-11.42-.65-8.09-.65-8.09"/><path class="cls-14" d="M107.18,441.11s8.11,14,13.15,9.57,7.74-6.34,13.74-5.59,9.67,1.14,13,3.08,9.3,1.74,7.94,10.64-7.38,11.05-4,14.92,8.24,9.28,6.5,12.37-2.63,4.36-2.63,4.36"/><path class="cls-14" d="M222.71,801.32s-.47-8.64-3.91-23.73-2.36-13.55,0-27.1,7-18.58,6.62-28.26.47-13.55-5.76-18.19-5.46,4.64-9.33-10.45-8.52-34.45,0-43,8.81-11.61,8.47-23.23-2.28-35.22-8.47-41-5-5.8-10.84-12.77-.78-36.39,1.54-46.07,17.85-27.33,10.09-42.89S200.65,461.28,190.58,464s2.35-35.09,2.35-35.09"/><path class="cls-14" d="M176.16,659.91c3-1.07,4.13-2.49,4.55-3.6.82-2.14-.59-3.73-.09-7.24a12.87,12.87,0,0,1,1.44-4.26c2.79-5.59,6.91-4.82,9.3-9.29,2.77-5.19,0-11.49-.2-12a14.27,14.27,0,0,0-2.27-3.53"/><path class="cls-15" d="M182.93,155.19s-5.24-3.47-6.34-7.42-2.06-5.06-2.31-10.92c-.15-3.54,0-7.62.09-10.31.06-1.26.12-2.22.14-2.65,0-.17,0-.26,0-.26"/><path class="cls-15" d="M94.45,87c-.2,2.42-.43,6.29,1.6,9.3,2.2,3.26,3.36,5.41,5.21,7.66s1.3,2.81,3.51,3.76,2.15,1,3.35.55c1-.41,1.29-1.7,1.59-1.18a3.08,3.08,0,0,1,.21.68c.4,1.85.25,4.91,1.56,7.46a41.73,41.73,0,0,0,7.11,9.57c1.23,1.19,2.06,2.09,2.9,2.89a23.13,23.13,0,0,0,4.41,3.37c3.71,2.3,9.67,5.56,11.87,6s6.36,1.9,9.62,1.65,8.41-1.1,10.62-2.55,7.46-4.11,9.56-6.36c1.4-1.51,4.58-3.83,6.94-5.9a12.68,12.68,0,0,0,2.58-2.77c1.3-2.3,5.76-10.56,6.81-15a96.25,96.25,0,0,0,1.6-12.27c0-.33.08-.49.16-.53s.56.29,1.34.53c1.16.35,4.16-1,4.71-4.66s2.51-10.87,2.21-13.07-.25-5.36-1.76-6.41c-1.15-.8-.92-1.46-2-1.49a7.56,7.56,0,0,0-1.43.18c-2.76.56-3.16.41-4.21,2s-1.6,1.8-1.6,1.8l-1.86-8.36-.8-3.66a2.92,2.92,0,0,1-1.32.43,8.61,8.61,0,0,1-2.6-.76,5.5,5.5,0,0,0-2.26-1.07l-.43-.1a11.85,11.85,0,0,0-3.75-.46c-2,.05-3.16.71-4.34.69s-9-1.63-13.59-4.44-9,.85-11.22,1.05-9.57-2.75-12.42-1.7-6.92,4.06-11.87,4.41-8.57-2-9.77-.6a9.64,9.64,0,0,0-1.82,5.85c0,.15,0,.31,0,.46a43.21,43.21,0,0,0,1.8,12.22c1.75,5.26,1.4,7.51,1.1,9a19.71,19.71,0,0,1-1.17,3.35"/><path class="cls-15" d="M94.32,87s-4.63-6.11-5.83-11.32-1.6-5.11-2.61-8.32-1-8.21-.75-11.82a41.27,41.27,0,0,0-.8-13.07c-1.2-4.56,1.3-15.52,3.26-17.93a16,16,0,0,1,7.56-5.21c2.7-.75,7.86-2.9,13-9.11S122.45.87,126.45.32s9.37,2.2,11.77,2.65a51.92,51.92,0,0,0,19.94-.9c8.76-2.25,15.07,6.16,17.12,8.37S180,19.25,183.4,21a16.32,16.32,0,0,1,8.21,16.67c-1.15,9.42-2,13.93-2.8,14.23s1.7,4.86,1.55,8.81.13,6.09-.17,7.53h0"/><path class="cls-15" d="M144.78,106.1a1.28,1.28,0,0,0,.11-.2c.55-1.11.64-3.39.64-5.31s-3.71-11.73-4.47-13.72c-.08-.23-.13-.35-.13-.35"/><path class="cls-15" d="M131.11,116.67a42.21,42.21,0,0,0,6.85.69,33.56,33.56,0,0,0,9.48-.91,25.15,25.15,0,0,0,11-5.64c.07.69.76,8.21-4.91,13a12.8,12.8,0,0,1-18.88-2Z"/><path class="cls-15" d="M125.41,88c.27,1.93-.52,3.64-1.75,3.81s-2.45-1.26-2.71-3.2.52-3.63,1.75-3.8S125.15,86.08,125.41,88Z"/><path class="cls-15" d="M163.88,82.4c.27,1.94-.52,3.64-1.75,3.81S159.68,85,159.42,83s.52-3.64,1.75-3.81S163.62,80.47,163.88,82.4Z"/><path class="cls-15" d="M112.34,79s10.79-6.44,17.28-4.94"/><path class="cls-15" d="M151.73,72.33s9-5.18,19.21-1.45"/><path class="cls-15" d="M116.92,158s3.07-5,3.77-9.47a74.28,74.28,0,0,0,1.2-11.17c0-1.59-.09-4.7-.21-7.1-.05-1-.11-1.93-.19-2.53a2.36,2.36,0,0,0-.15-.74"/></g></g></svg>