<svg viewBox="100 0 75 180" xmlns="http://www.w3.org/2000/svg">
    <path fill="#008C8B" d="M39.8,-68.7C53.3,-61.2,67.1,-53.9,75,-42.5C82.9,-31.1,84.9,-15.6,79.9,-2.9C75,9.8,62.9,19.6,54.2,29.6C45.5,39.7,40.2,50,31.7,55C23.2,60,11.6,59.7,-0.4,60.3C-12.3,60.9,-24.6,62.5,-31.6,56.6C-38.5,50.7,-40,37.3,-38.9,26.7C-37.8,16,-34,8,-30.8,1.8C-27.7,-4.4,-25.2,-8.7,-24.4,-16.1C-23.6,-23.4,-24.5,-33.8,-20.8,-46.9C-17,-60,-8.5,-75.9,2.3,-79.9C13.2,-84,26.3,-76.2,39.8,-68.7Z" transform="translate(90 90)" >
    <animate
        attributeName="d"
        values="
        M39.8,-68.7C53.3,-61.2,67.1,-53.9,75,-42.5C82.9,-31.1,84.9,-15.6,79.9,-2.9C75,9.8,62.9,19.6,54.2,29.6C45.5,39.7,40.2,50,31.7,55C23.2,60,11.6,59.7,-0.4,60.3C-12.3,60.9,-24.6,62.5,-31.6,56.6C-38.5,50.7,-40,37.3,-38.9,26.7C-37.8,16,-34,8,-30.8,1.8C-27.7,-4.4,-25.2,-8.7,-24.4,-16.1C-23.6,-23.4,-24.5,-33.8,-20.8,-46.9C-17,-60,-8.5,-75.9,2.3,-79.9C13.2,-84,26.3,-76.2,39.8,-68.7Z;
       M39.9,-68.5C51.2,-62.6,59.6,-50.9,67.3,-38.5C75.1,-26.1,82.3,-13.1,81.6,-0.4C80.9,12.3,72.3,24.5,61.5,31.7C50.7,38.8,37.7,40.8,27.1,45.1C16.5,49.3,8.2,55.9,-0.2,56.3C-8.7,56.8,-17.4,51,-31.6,48.8C-45.8,46.6,-65.5,47.9,-71,40.3C-76.6,32.8,-68.1,16.4,-63.7,2.6C-59.2,-11.3,-58.9,-22.5,-55.3,-33.5C-51.7,-44.4,-44.8,-55.1,-35,-61.8C-25.3,-68.6,-12.6,-71.4,0.8,-72.9C14.3,-74.3,28.6,-74.3,39.9,-68.5Z;
       M37.8,-60.4C50.9,-57.9,64.7,-51.6,69.3,-40.9C73.9,-30.2,69.2,-15.1,62.9,-3.7C56.5,7.8,48.4,15.5,42.5,23.9C36.5,32.3,32.8,41.2,26.1,43.9C19.3,46.6,9.7,42.9,-2.2,46.7C-14.1,50.5,-28.2,61.9,-37.6,60.8C-46.9,59.6,-51.6,46,-55.3,33.8C-58.9,21.6,-61.7,10.8,-63.6,-1.1C-65.6,-13.1,-66.9,-26.2,-61.1,-34.8C-55.3,-43.3,-42.5,-47.3,-31.1,-50.8C-19.7,-54.3,-9.9,-57.4,1.2,-59.6C12.4,-61.7,24.7,-63,37.8,-60.4Z;
        M39.8,-68.7C53.3,-61.2,67.1,-53.9,75,-42.5C82.9,-31.1,84.9,-15.6,79.9,-2.9C75,9.8,62.9,19.6,54.2,29.6C45.5,39.7,40.2,50,31.7,55C23.2,60,11.6,59.7,-0.4,60.3C-12.3,60.9,-24.6,62.5,-31.6,56.6C-38.5,50.7,-40,37.3,-38.9,26.7C-37.8,16,-34,8,-30.8,1.8C-27.7,-4.4,-25.2,-8.7,-24.4,-16.1C-23.6,-23.4,-24.5,-33.8,-20.8,-46.9C-17,-60,-8.5,-75.9,2.3,-79.9C13.2,-84,26.3,-76.2,39.8,-68.7Z;"
        begin="0s"
        keyTimes="0; 0.3; 0.6; 1"
        calcMode="liner"
        keySplines="0.5 0 0.5 1; 0.5 0 0.5 1; 0.5 0 0.5 1; 0.5 0 0.5 1"
        repeatCount="indefinite"
        dur="40s"
    >
    </animate>
     </path>
</svg>
