<svg viewBox="100 0 75 180" xmlns="http://www.w3.org/2000/svg">
    <path fill="#008C8B" d="M43.1,-76C55,-67.7,63.4,-54.6,68.7,-41.1C73.9,-27.6,76,-13.8,76.5,0.3C76.9,14.4,75.8,28.7,71.1,43.1C66.4,57.5,58.2,72,45.7,78.3C33.3,84.6,16.7,82.6,2,79.2C-12.7,75.7,-25.4,70.8,-36.7,63.9C-48,57,-57.9,48,-66.6,37.1C-75.3,26.1,-82.8,13,-84.8,-1.1C-86.8,-15.3,-83.3,-30.7,-75.8,-43.8C-68.3,-56.9,-56.8,-67.7,-43.5,-75.2C-30.2,-82.8,-15.1,-87.1,0.2,-87.5C15.5,-87.8,31.1,-84.3,43.1,-76Z" transform="translate(90 90)" >
    <animate
        attributeName="d"
        values="
        M43.1,-76C55,-67.7,63.4,-54.6,68.7,-41.1C73.9,-27.6,76,-13.8,76.5,0.3C76.9,14.4,75.8,28.7,71.1,43.1C66.4,57.5,58.2,72,45.7,78.3C33.3,84.6,16.7,82.6,2,79.2C-12.7,75.7,-25.4,70.8,-36.7,63.9C-48,57,-57.9,48,-66.6,37.1C-75.3,26.1,-82.8,13,-84.8,-1.1C-86.8,-15.3,-83.3,-30.7,-75.8,-43.8C-68.3,-56.9,-56.8,-67.7,-43.5,-75.2C-30.2,-82.8,-15.1,-87.1,0.2,-87.5C15.5,-87.8,31.1,-84.3,43.1,-76Z;
M30.9,-51.1C41.2,-47.7,51.3,-41.6,60.8,-32.6C70.4,-23.6,79.4,-11.8,78.5,-0.5C77.6,10.8,66.9,21.6,56.6,29.2C46.2,36.9,36.3,41.3,27,49.3C17.6,57.3,8.8,68.7,-3.5,74.8C-15.8,80.8,-31.6,81.5,-39,72.4C-46.4,63.3,-45.3,44.4,-53.3,30.7C-61.4,17,-78.5,8.5,-78.9,-0.2C-79.3,-9,-63.1,-18,-52,-26.5C-41,-34.9,-35.1,-42.8,-27.3,-47.7C-19.5,-52.5,-9.8,-54.4,0.3,-54.9C10.4,-55.4,20.7,-54.6,30.9,-51.1Z;
M31.2,-58.7C39.6,-49.1,45.2,-39.2,51.4,-29.4C57.7,-19.5,64.6,-9.8,63.9,-0.4C63.2,8.9,54.8,17.9,50.9,31.7C47,45.6,47.4,64.3,39.7,73.5C31.9,82.7,16,82.4,1.6,79.7C-12.9,77,-25.7,71.9,-36.6,64.5C-47.6,57.1,-56.6,47.5,-60.4,36.4C-64.3,25.2,-62.9,12.6,-64.1,-0.7C-65.3,-14,-68.9,-28,-64.8,-38.5C-60.6,-49.1,-48.6,-56.3,-36.5,-63.8C-24.4,-71.4,-12.2,-79.3,-0.4,-78.6C11.3,-77.8,22.7,-68.4,31.2,-58.7Z;
        M43.1,-76C55,-67.7,63.4,-54.6,68.7,-41.1C73.9,-27.6,76,-13.8,76.5,0.3C76.9,14.4,75.8,28.7,71.1,43.1C66.4,57.5,58.2,72,45.7,78.3C33.3,84.6,16.7,82.6,2,79.2C-12.7,75.7,-25.4,70.8,-36.7,63.9C-48,57,-57.9,48,-66.6,37.1C-75.3,26.1,-82.8,13,-84.8,-1.1C-86.8,-15.3,-83.3,-30.7,-75.8,-43.8C-68.3,-56.9,-56.8,-67.7,-43.5,-75.2C-30.2,-82.8,-15.1,-87.1,0.2,-87.5C15.5,-87.8,31.1,-84.3,43.1,-76Z;"
        begin="0s"
        keyTimes="0; 0.3; 0.6; 1"
        calcMode="liner"
        keySplines="0.5 0 0.5 1; 0.5 0 0.5 1; 0.5 0 0.5 1; 0.5 0 0.5 1"
        repeatCount="indefinite"
        dur="30s"
    >
    </animate>
     </path>
</svg>
