<svg xmlns="http://www.w3.org/2000/svg" viewBox="0 0 305.16 802.68"><defs><style>.cls-1{fill:#746c6b;}.cls-2{fill:#a37173;}.cls-3{fill:#574d55;}.cls-4{fill:#b28d8a;}.cls-5{fill:#5e5c5d;}.cls-6{fill:#bc8183;}.cls-7{fill:#bb8981;}.cls-8{fill:#74839a;}.cls-9{fill:#ceab9e;}.cls-10{fill:#da9d95;}.cls-11{fill:#819fb1;}.cls-12{fill:#818277;}.cls-13{fill:#fff;}.cls-14,.cls-15,.cls-16,.cls-17,.cls-18,.cls-19,.cls-20,.cls-21{fill:none;stroke-linecap:round;stroke-linejoin:round;}.cls-14{stroke:#bc8183;}.cls-15{stroke:#000;}.cls-16{stroke:#746c6b;}.cls-17{stroke:#5e5c5d;}.cls-18{stroke:#a37173;}.cls-19{stroke:#b28d8a;}.cls-20{stroke:#574d55;}.cls-21{stroke:#819fb1;}</style></defs><g id="Слой_2" data-name="Слой 2"><g id="Слой_2-2" data-name="Слой 2"><path class="cls-1" d="M304.66,427.79c0,2.06-7.48,5.82-15.38,12-5.8,4.56-20.5,12.93-32.52,19.38-4.41,2.34-8.45,4.42-11.56,6-11.62,5.82-44.9,9.56-52.8,7.48a6.27,6.27,0,0,1-1.59-.65l.17-.3a27.38,27.38,0,0,0,11.17-4.88c2.36-1.74,4.86-3.65,5.33-6.74a8.54,8.54,0,0,0-.86-4.75c-2.47-5.28-6.32-6.79-9.39-10.16-2.17-2.36-4.57-6.42-4.94-13.81l.24-.15c2,2.58,4.38,3.89,7.15,3.8,4.58-.11,23.93-5.05,41.63-11,12.91-4.29,24.94-9.15,29.67-13,6.59-5.42,14-12.25,19.07-17a89.2,89.2,0,0,1,14.61,33.7Z"/><path class="cls-2" d="M288.59,223.36a206.06,206.06,0,0,1,2.9,43.8s-13.49-.22-29.06-1c-2.92-.15-5.91-.32-8.92-.52l0-.71c-.17-2.12-1.18-15.06-1.5-25.09a25.12,25.12,0,0,1,.56-6.87c.71-3,2.26-5.78,3.54-8.61a58.09,58.09,0,0,0,4.86-31.6c-1.12-8.79-5-18.05-12.87-22a33.62,33.62,0,0,0-13.92-3.42c-8.44-.45-20.19-3-35.18-12-1.94-1.16-3.93-2.43-6-3.83a24.32,24.32,0,0,0,2.45-1.39c.28-.2.58-.39.86-.58a96.93,96.93,0,0,0,8.64-6.83c22.49,9.92,25.24,11.08,25.24,11.08,28.2,11.9,28.16,8,35.33,13.17C280.6,177.71,284,197,288.59,223.36Z"/><path class="cls-3" d="M295.94,388.5s-2.34,2.28-5.89,5.59c-5,4.7-12.48,11.53-19.07,17-4.73,3.88-16.76,8.74-29.67,13l-.11-.27a88.21,88.21,0,0,1,11.58-13.58,89.4,89.4,0,0,1,20.9-14.89l-33.7,9.3a9.92,9.92,0,0,1-4.4.52,3.4,3.4,0,0,1-2.93-2.9,5.53,5.53,0,0,1,.76-2.43,22.29,22.29,0,0,0,2-7.77,2.74,2.74,0,0,0-.49-2.09,2.93,2.93,0,0,0-2.07-.6c-2.94-.11-27.81-3.72-44-13.38-4.85-2.9-7.67-5.59-14.2-7.61a42.25,42.25,0,0,0-11.19-1.8l-.13.11c-3.76-4.84-7.15-8.83-9.3-11.3l-1.12-1.29c3.48,1,8.53,2.56,14,4.34,13.38,4.36,19.95,6.87,26.51,10.87,8.89,5.41,9.17,6.64,15.46,8.63,1.16.39,6.21,1.12,16.26,2.6,4.88.73,9,1.29,9.65-.13.26-.55-.13-1.31-.56-1.89-8.55-3.26-12.7-4.72-14.48-5.2-.45-.12-2.17-.55-2.17-1.09,0-.17.24-.32.39-.41,2.62.73,26.33,7.37,31,5.52.15-.06.56-.23.58-.49.11-1.74-17-6.51-22.06-9.35,0,0-.35-.17-.3-.25s.21-.05.58,0c3.82.75,25.06,7.65,27.84,5.48a.18.18,0,0,0,.1-.13c0-.13-.43-1.76-20.08-9.84-2.54-1.05-5.37-2.19-8.57-3.46,3.56.9,7.13,1.74,10.69,2.6,1.64.41,3.29.82,4.92,1.25,7,1.84,10.7,3,11.28,1.95.28-.52-.36-1.37-.62-1.74-1.27-1.65-3.95-3.52-7.37-5.43-11.84-6.6-32.35-13.6-32.35-13.6l25.65-1.81s8-4.7-7.78-6.23c-1.46-.15-3.05-.25-4.79-.36l.3-4.83a56.06,56.06,0,0,0,6.58.06c7.75-.43,13.74-9.62,18.21-20.94,0,0,4.38.71,4.32,6.31s13.51,26.62,21.14,34.09S295.94,388.5,295.94,388.5Z"/><path class="cls-4" d="M275.1,795.87a55,55,0,0,1-.21,5.52l-18.05.08a36.86,36.86,0,0,0-.81-5.6Z"/><path class="cls-4" d="M275.1,795.87H256c-3.31-14.42-14.81-13.9-21.64-14.37-1.29-.09-2.75-.24-4.34-.41l.52-5.18c4.58.54,11.45.22,22.32-.3a33.15,33.15,0,0,1,9.69.86,28.71,28.71,0,0,1,5.82,2C272.74,780.85,275,787.6,275.1,795.87Z"/><path class="cls-5" d="M240,404.63l33.7-9.3a89.4,89.4,0,0,0-20.9,14.89A88.21,88.21,0,0,0,241.2,423.8l.11.27c-17.7,5.93-37.05,10.87-41.63,11-2.77.09-5.13-1.22-7.15-3.8-3.74-4.75-6.34-13.86-8.23-26.55-1.7-11.28-12.31-26.87-21-38l.13-.11a42.25,42.25,0,0,1,11.19,1.8c6.53,2,9.35,4.71,14.2,7.61,16.16,9.66,41,13.27,44,13.38a2.93,2.93,0,0,1,2.07.6,2.74,2.74,0,0,1,.49,2.09,22.29,22.29,0,0,1-2,7.77,5.53,5.53,0,0,0-.76,2.43,3.4,3.4,0,0,0,2.93,2.9A9.92,9.92,0,0,0,240,404.63Z"/><path class="cls-6" d="M262.43,266.17l-.05,1s-3.22,24.4-10.61,43.09c-4.47,11.32-10.46,20.51-18.21,20.94a56.06,56.06,0,0,1-6.58-.06c-21.2-1.38-53-12.42-63-14.91-4-1-12.59-3.89-21.95-7.2l0,0c-7.33-2.58-15.13-5.41-21.55-7.78-8.16-3-14.13-5.24-14.13-5.24s-2.73-1.5-6.34-3.35C94.34,289.75,86.43,286,83.47,286c-4.84,0-12.89-2.52-14.54-4.45l-.46-.52c-1.22-1.44-2.27-2.66-3.17-3.65-2.17-2.36-3.61-3.48-5-3.31A3.84,3.84,0,0,0,57.39,278a3.76,3.76,0,0,0,2.94,3.1,3.2,3.2,0,0,0,2.77-.56c.76-.67,1.25-1.05,1.42-1.87v0a18.26,18.26,0,0,1-1.74,5.8l-.19-.09c-.69.11-7.91,1-11.73-3.87-.28-.36-3.52-4.38-1.83-7.56a8,8,0,0,1,4.3-3.31c8.31-3.35,17.89-1.56,26.14,2s15.77,8.61,24,12.22a142.47,142.47,0,0,0,17.5,6c32.87,9.67,65.78,19.31,99.35,26.19,1.57.32,3.31.6,4.69-.2a6.73,6.73,0,0,0,2.27-2.87c2.41-4.62,4.73-9.31,7-14s4.38-9.45,6.45-14.26c1.05-2.48,2.06-5.5.51-7.72a6.56,6.56,0,0,0-3.44-2.32c-3.28-1-9.15-4.1-20.42-12.69l-1.1,0,.09-2.17c1.2,3.09,19.14,4.94,37.2,6C256.52,265.85,259.51,266,262.43,266.17Z"/><path class="cls-7" d="M179.21,282.94c-8.64-.4-20-1.05-30.46-2a246.28,246.28,0,0,1-15.9-26.7A243.18,243.18,0,0,1,119.45,223c-5.69-31.9-8.61-65.09-8.61-65.09l-.07-.23c2.34-.71,4.7-1.4,7.07-2a91.68,91.68,0,0,0,10.61-3.55,25.34,25.34,0,0,0,4.3-2l0,0s4.31,3.73,12.48,6.08l-1.81,6.12a62.87,62.87,0,0,0,21.74,3.26c11.22-.58,29.65-5.56,32.91-8.67l.95-1.57c15,9,26.74,11.55,35.18,12a33.62,33.62,0,0,1,13.92,3.42c7.91,3.95,11.75,13.21,12.87,22a58.09,58.09,0,0,1-4.86,31.6c-1.28,2.83-2.83,5.58-3.54,8.61a25.12,25.12,0,0,0-.56,6.87c.32,10,1.33,23,1.5,25.09l0,.71c-18.06-1.09-36-2.94-37.2-6a213.12,213.12,0,0,1,23.17-73.45l-13.4,12.7a35.62,35.62,0,0,1,.32-16.74,56.91,56.91,0,0,0-5.63,17.53c-.45,3-.68,6-2,8.75s-3.78,4.89-6.66,4.87a66.92,66.92,0,0,0,.26-9.28c-.19,3.09-.37,6.19-.54,9.28h.28c-.56,6.21-1.67,12.42-2.19,18.65-.49,5.82-.47,11.66-.45,17.5,0,3.42,0,6.83,0,10.25a83.91,83.91,0,0,0-11.1-25.28c-1.29-1.94-2.73-3.91-4.82-4.9a1,1,0,0,0-1.13,0,1.11,1.11,0,0,0-.24.75c-1,17.16,9.9,32.71,12.57,49.68v3.61h-11.6S187.48,283.33,179.21,282.94Z"/><path class="cls-8" d="M256.76,459.22l.08.17c-10.61,52.48-17.16,97.74-21.37,133.4-5.63,47.79-8.08,86.89-9.52,110.37-1.42,23.15-2.28,42.83-2.79,57.65H202.24v-3.89c-1-16.45-.22-32.95,1-49.38,1.2-16.16,2.81-32.37,6.59-48.14a34.48,34.48,0,0,0-11.32,12.14l-1.55-.69a168.91,168.91,0,0,1,.3-23.05,73.3,73.3,0,0,1,1.92-12.61c1.22-4.7,3.15-9.19,4.79-13.77a118.55,118.55,0,0,0,5.37-20.32,5.85,5.85,0,0,0,0-2.79c-.73-2.17-3.89-2.45-6.55-3.23l.83-3.07s-21-15.31-24.36-16.54c.22-7.64.45-15.31.67-23,0,0,3.84-68.83,9.3-81.5a10.82,10.82,0,0,0,1.57,1,6.27,6.27,0,0,0,1.59.65c7.9,2.08,41.18-1.66,52.8-7.48C248.31,463.64,252.35,461.56,256.76,459.22ZM225.48,509c.56-3.33,1.16-6.79.36-10.1a1.6,1.6,0,0,0-.49-.94,1.69,1.69,0,0,0-1.5,0,22.42,22.42,0,0,0-7.41,4.36,31.87,31.87,0,0,1-3.76,3.24,12,12,0,0,1-8.92,1.29,7,7,0,0,0-2.86-.3c-.94.2-1.82,1.12-1.56,2l-.93.18c-2.25,3.75-3.35,8.07-4.42,12.3-2.26,9.09-4.47,18.28-4.58,27.63s2,19,7.74,26.44c2.75,3.59,6.59,6.73,11.1,7.11a4.69,4.69,0,0,0,2.26-.23,5.6,5.6,0,0,0,2-1.62c3.33-3.75,5.24-8.59,6.31-13.51a101.52,101.52,0,0,0,1.61-15A429.91,429.91,0,0,1,225.48,509Z"/><path class="cls-9" d="M256.84,801.47l-79.39.41s.3-2.53.53-6h78A36.86,36.86,0,0,1,256.84,801.47Z"/><path class="cls-9" d="M178.22,793.81c.24-2.45,2-15.11,15.36-16,.88,0,1.78,0,2.75,0,14.46.71,25.88,2.43,33.72,3.27,1.59.17,3,.32,4.34.41,6.83.47,18.33,0,21.64,14.37H178c.05-.65.09-1.36.11-2.06Z"/><path class="cls-6" d="M255.7,372.63a.18.18,0,0,1-.1.13c-2.78,2.17-24-4.73-27.84-5.48l-.39-1.72a37.65,37.65,0,0,0,8.23-2.73l0,0C255.27,370.87,255.7,372.5,255.7,372.63Z"/><path class="cls-6" d="M253.32,363.39c.26.37.9,1.22.62,1.74-.58,1.07-4.32-.11-11.28-1.95-1.63-.43-3.28-.84-4.92-1.25l0-.06A82.15,82.15,0,0,0,246,358C249.37,359.87,252.05,361.74,253.32,363.39Z"/><path class="cls-6" d="M152.89,354.09c-2.94-.86-4.76-1.35-4.76-1.35s-7.22-2-17.1-4.56c-12.31-3.16-28.79-7.19-40.62-9.26-2.22-.38-4.28-.71-6.1-.94-11-1.4-15.81-6.36-17.92-10.42l1.7,0c38.66,4.21,77.09,12.57,113,27.49,9.84,4.09,19.59,8.68,30.07,10.59a42.64,42.64,0,0,0,8.23.73,40.5,40.5,0,0,0,7.91-.77.07.07,0,0,0,.06,0l.39,1.72c-.37-.09-.56-.09-.58,0s.3.25.3.25c5.09,2.84,22.17,7.61,22.06,9.35,0,.26-.43.43-.58.49-4.71,1.85-28.42-4.79-31-5.52-.15.09-.39.24-.39.41,0,.54,1.72,1,2.17,1.09,1.78.48,5.93,1.94,14.48,5.2.43.58.82,1.34.56,1.89-.63,1.42-4.77.86-9.65.13-10.05-1.48-15.1-2.21-16.26-2.6-6.29-2-6.57-3.22-15.46-8.63-6.56-4-13.13-6.51-26.51-10.87C161.42,356.65,156.37,355.12,152.89,354.09Z"/><path class="cls-10" d="M246,358a82.15,82.15,0,0,1-8.18,3.91l0,.06c-3.56-.86-7.13-1.7-10.69-2.6,3.2,1.27,6,2.41,8.57,3.46l0,0a37.65,37.65,0,0,1-8.23,2.73.07.07,0,0,1-.06,0,40.5,40.5,0,0,1-7.91.77,42.64,42.64,0,0,1-8.23-.73c-10.48-1.91-20.23-6.5-30.07-10.59-35.92-14.92-74.35-23.28-113-27.49l-1.7,0a14,14,0,0,1-1.63-5.8L63.1,287.67l-2.87-.11a8.19,8.19,0,0,0,2.55-3.13,18.26,18.26,0,0,0,1.74-5.8l.78-1.23c.9,1,2,2.21,3.17,3.65l.46.52c1.65,1.93,9.7,4.45,14.54,4.45,3,0,10.87,3.73,16.54,6.61a17.57,17.57,0,0,0,2.15,4.19,17.91,17.91,0,0,0,4,4.15l19.33,11,1,.43,25.8,10.82,20.78,8.7c8.12,3.42,36.62,3,53.61,4,1.74.11,3.33.21,4.79.36,15.79,1.53,7.78,6.23,7.78,6.23l-25.65,1.81S234.11,351.36,246,358Z"/><path class="cls-10" d="M241.18,276.84c1.55,2.22.54,5.24-.51,7.72-2.07,4.81-4.21,9.55-6.45,14.26l-3.78-.54s-10-12.89-15.16-14.78l.94-21.71,1.1,0c11.27,8.59,17.14,11.68,20.42,12.69A6.56,6.56,0,0,1,241.18,276.84Z"/><path class="cls-2" d="M226.08,198.87l13.4-12.7a213.12,213.12,0,0,0-23.17,73.45l-.09,2.17-.94,21.71H204.84v-3.61c-2.67-17-13.58-32.52-12.57-49.68a1.11,1.11,0,0,1,.24-.75,1,1,0,0,1,1.13,0c2.09,1,3.53,3,4.82,4.9a83.91,83.91,0,0,1,11.1,25.28c0-3.42,0-6.83,0-10.25,0-5.84,0-11.68.45-17.5.52-6.23,1.63-12.44,2.19-18.65,2.88,0,5.41-2.25,6.66-4.87s1.5-5.78,2-8.75a56.91,56.91,0,0,1,5.63-17.53A35.62,35.62,0,0,0,226.08,198.87Z"/><path class="cls-10" d="M51.07,266.6a18,18,0,0,0-8.59,2.83,18.76,18.76,0,0,0-5.5,6.12,4.37,4.37,0,0,0-.75,3.29,4.08,4.08,0,0,0,2,2.26c2.9,1.84,6.36,1.63,8,1.44-2.36-2.07-3.82-4.19-3.33-5.89a15.19,15.19,0,0,1,1.36-2.49,20.11,20.11,0,0,1,1.93-2.64A57.92,57.92,0,0,1,51.07,266.6Zm.39,19.54,0,0s-15.75,2.19-18.07-6a7.15,7.15,0,0,1-.3-2.08v-.45a19.49,19.49,0,0,1,.65-4.77,18.48,18.48,0,0,1,.6-1.82,19.06,19.06,0,0,1,6.74-8.66l4.64-3.93c1.14-.22,1.89-.43,1.92-.84a.77.77,0,0,0-.3-.54c-1-.86-4.21-1.93-8.88-2.83a105.5,105.5,0,0,0-13.66-1.66,119,119,0,0,0-24,1,2,2,0,0,1,.11-.28c2.51-5.39,12.48-4.76,12.48-4.76l26.18-2.3a45.09,45.09,0,0,1,16.85-1.44,32.77,32.77,0,0,1,13.72,4.55c2.58,1.59,5.14,3.2,7.61,4.73,10.71,6.7,19.63,12.33,19.63,12.33s6.4,2.92,15.47,6.14a163,163,0,0,0,25.9,7.15c2.11.35,4.19.65,6.23.84,1.23.13,2.47.24,3.74.35,10.46.94,21.82,1.59,30.46,2,8.27.39,14,.56,14,.56h22c5.19,1.89,15.16,14.78,15.16,14.78l3.78.54c-2.23,4.72-4.55,9.41-7,14a6.73,6.73,0,0,1-2.27,2.87c-1.38.8-3.12.52-4.69.2C186.73,309,153.82,299.4,121,289.73a142.47,142.47,0,0,1-17.5-6c-8.21-3.61-15.71-8.72-24-12.22s-17.83-5.31-26.14-2a8,8,0,0,0-4.3,3.31c-1.69,3.18,1.55,7.2,1.83,7.56,3.82,4.84,11,4,11.73,3.87l.19.09a8.19,8.19,0,0,1-2.55,3.13c-1.46,1-3.36,1.29-5.85.11C53.42,287.2,52.43,286.68,51.46,286.14Z"/><path class="cls-4" d="M230.57,775.91l-.52,5.18c-7.84-.84-19.26-2.56-33.72-3.27-1,0-1.87,0-2.75,0l-.09-4.27c5.09-.15,7.93-1.27,9.58-4,1.94-3.18,3.05-8.72,3.05-8.72h7.76c3.91,9.13,8.72,12.67,12.57,14.18A15.34,15.34,0,0,0,230.57,775.91Z"/><path class="cls-2" d="M227,331.13l-.3,4.83c-17-1-45.49-.6-53.61-4l-20.78-8.7-10-13.9-.21-.32c9.36,3.31,18,6.21,21.95,7.2C174,318.71,205.78,329.75,227,331.13Z"/><path class="cls-11" d="M225.84,498.91c.8,3.31.2,6.77-.36,10.1a429.91,429.91,0,0,0-5,42.94,101.52,101.52,0,0,1-1.61,15c-1.07,4.92-3,9.76-6.31,13.51a5.6,5.6,0,0,1-2,1.62,4.69,4.69,0,0,1-2.26.23c-4.51-.38-8.35-3.52-11.1-7.11-5.7-7.43-7.87-17.08-7.74-26.44s2.32-18.54,4.58-27.63c1.07-4.23,2.17-8.55,4.42-12.3l.93-.18c-.26-.92.62-1.84,1.56-2a7,7,0,0,1,2.86.3,12,12,0,0,0,8.92-1.29,31.87,31.87,0,0,0,3.76-3.24,22.42,22.42,0,0,1,7.41-4.36,1.69,1.69,0,0,1,1.5,0A1.6,1.6,0,0,1,225.84,498.91Z"/><path class="cls-11" d="M181.81,593.77a27.64,27.64,0,0,0,11.1,14.72,10.92,10.92,0,0,0,6.32,2.17,1.52,1.52,0,0,0,1-.35,1.69,1.69,0,0,0,.28-1.26c-.15-2.32-.28-4.62-.43-6.94-.3-5.29-.52-4.47-1-6a18.08,18.08,0,0,0-1.09-3,22.12,22.12,0,0,0,4.64,2l.11,0c2.66.78,5.82,1.06,6.55,3.23a5.85,5.85,0,0,1,0,2.79A118.55,118.55,0,0,1,204,621.42c-1.64,4.58-3.57,9.07-4.79,13.77a73.3,73.3,0,0,0-1.92,12.61,168.91,168.91,0,0,0-.3,23.05l1.55.69a34.48,34.48,0,0,1,11.32-12.14c-3.78,15.77-5.39,32-6.59,48.14-1.23,16.43-2,32.93-1,49.38v3.89h-28.4q2.5-85.65,5-171.29h.06a44.28,44.28,0,0,1,3.84,3.7Z"/><path class="cls-12" d="M189.24,471a29.83,29.83,0,0,1-5.11-5.52l0,0c-1.61-2.13-3.33-4.66-5.18-7.52-5.09-7.93-11.17-18.28-19-29.34-1-1.49-2.08-3.12-3.11-4.9a131.25,131.25,0,0,1-7-14.37h20.51s-9.92-27.73-14.63-43.29c-1.46-4.85-2.43-8.5-2.43-9.77l.69-.9c2.15,2.47,5.54,6.46,9.3,11.3,8.68,11.15,19.29,26.74,21,38,1.89,12.69,4.49,21.8,8.23,26.55l-.24.15c.37,7.39,2.77,11.45,4.94,13.81,3.07,3.37,6.92,4.88,9.39,10.16a8.54,8.54,0,0,1,.86,4.75c-.47,3.09-3,5-5.33,6.74A27.38,27.38,0,0,1,191,471.74l-.17.3A10.82,10.82,0,0,1,189.24,471Z"/><path class="cls-4" d="M202.24,760.81h3.88s-1.11,5.54-3.05,8.72c-1.65,2.75-4.49,3.87-9.58,4-.81,0-1.69,0-2.62,0-6.78-.13-3.58-12.74-3.58-12.74Z"/><path class="cls-8" d="M182.77,593.22a44.28,44.28,0,0,0-3.84-3.7h-.06q.18-7,.4-14c3.38,1.23,24.36,16.54,24.36,16.54l-.83,3.07-.11,0a22.12,22.12,0,0,1-4.64-2,5.84,5.84,0,0,0-2.56-2.9,5,5,0,0,0-2.25-.63,27.32,27.32,0,0,0,4.81,3.53,18.08,18.08,0,0,1,1.09,3c.45,1.55.67.73,1,6,.15,2.32.28,4.62.43,6.94a1.69,1.69,0,0,1-.28,1.26,1.52,1.52,0,0,1-1,.35,10.92,10.92,0,0,1-6.32-2.17,27.64,27.64,0,0,1-11.1-14.72Z"/><path class="cls-6" d="M205,142.72a96.93,96.93,0,0,1-8.64,6.83l-.21-.65c-10.16-8-14.61-16.32-16.59-21a63.09,63.09,0,0,1-2.34-6.88c-2.32-8.07-3.78-16.67-1.82-24.85l-.24-1.35,3.52-.65s.69,12.55,5,16.39C179,124.78,205,142.72,205,142.72Z"/><path d="M187.29,7.45c16.34,2.49,15.78,27.43,15,37.7s-8.32,15.79-8.19,31-5.67,20.23-10.37,34.41c-4.3-3.84-5-16.39-5-16.39l-3.52.65-2.58.45s1.94-1.25,7.48-8.79.41-22.25-5.39-24.34S165.1,73.55,165,80.89s-4.86,5.83-6,4.58c-.56-.62-1.55-5.61-3.33-10.08s-4.26-8.27-7.89-7.11c-5,1.59-21.56,0-31.79-1.26-4.88-.6-8.31-1.1-8.31-1.1-2.67-3.39-11.41-7.28-18-13.85-7.5-7.48-8.87-15.23-7.22-31.88S105.23,4.4,118.76,4.4,152.92.79,160.11.51,170.92,5,187.29,7.45Z"/><path class="cls-7" d="M199,155.35l-.95,1.57c-3.26,3.11-21.69,8.09-32.91,8.67a62.87,62.87,0,0,1-21.74-3.26l1.81-6.12a49.35,49.35,0,0,0,17.85,1.67c16.47-1.33,25-3.82,30-6.36C195.11,152.92,197.1,154.19,199,155.35Z"/><path class="cls-10" d="M126.26,77.71a0,0,0,0,1,0,0c2-1.48,4.64-1.67,7.11-1.39s4.85,1,7.3,1.07a28,28,0,0,0,5-.28,88.16,88.16,0,0,0,9.75-1.61l.22-.09c1.78,4.47,2.77,9.46,3.33,10.08,1.11,1.25,5.82,2.77,6-4.58s3.89-20.79,9.71-18.71S185.61,79,180.07,86.52s-7.48,8.79-7.48,8.79l2.58-.45.24,1.35c-2,8.18-.5,16.78,1.82,24.85a63.09,63.09,0,0,0,2.34,6.88c2,4.64,6.43,13,16.59,21l.21.65c-.28.19-.58.38-.86.58a24.32,24.32,0,0,1-2.45,1.39c-5,2.54-13.49,5-30,6.36a49.35,49.35,0,0,1-17.85-1.67c-8.17-2.35-12.48-6.08-12.48-6.08l0,0a11.84,11.84,0,0,0,1.41-1,13.08,13.08,0,0,0,4.62-6.35c.45-1.57.28-2.41.07-6.3,0-.15,0-.3,0-.45v0c6.06-1.46,10.51-2.71,11.63-3.09a21.85,21.85,0,0,0,2.32-.93,7.18,7.18,0,0,0,.68-.34,15.82,15.82,0,0,0,7.11-7.41,29.55,29.55,0,0,0,1.19-3.16c1.07-3.24,1.8-5,2.34-7a39.8,39.8,0,0,0,1.18-6.77c-1.48,5.28-4.47,12.67-9.86,14.41-5.87,1.89-11.84,4.69-16.82,6.34a24.94,24.94,0,0,1-6.19,1.42c-5.54.28-9.15.28-10.8-2.77a40.22,40.22,0,0,1-2.84-8.4,27.54,27.54,0,0,0,14.61-6,27.22,27.22,0,0,0,7.26-9.19l-.09,0-23.45,3.13c-.41-3.13-.78-5.82-.78-5.82L100,102s10.52-15,10-24.13-1.54-10.52-1.54-10.52a3.94,3.94,0,0,0-.73-1.4s3.43.5,8.31,1.1l0,.3a9.87,9.87,0,0,1,5.15,4.32c1.08,2,2.54,3.82,3.44,5.9a1,1,0,0,0,.49.56C125.44,78.29,125.89,78,126.26,77.71Z"/><path class="cls-4" d="M193.49,773.55l.09,4.27c-13.32.88-15.12,13.54-15.36,16h-.13a77.39,77.39,0,0,0,0-8.75c-.06-1.07-.17-2.1-.32-3.07q.22-10.61.43-21.18h9.09s-3.2,12.61,3.58,12.74C191.8,773.57,192.68,773.57,193.49,773.55Z"/><path class="cls-8" d="M179.27,575.47q-.22,7-.4,14-2.52,85.68-5,171.29l-.13,4.45-7.65-.52-15.49-1,.22-3.09c1.14-10,.84-20.05.56-30.08l1.67-4.38s.11-.13.18-.43c2.4-11.17,5.84-22.4,4.83-33.79-.41-4.55-1.5-9-2-13.53-.69-6.34-.17-12.74.34-19.1,1.55-19.29,3.08-38.6,3-57.95-.09-13.22-.93-26.45-.11-39.66a149.31,149.31,0,0,1,2.56-19.74l1.15.24a47.7,47.7,0,0,0,3-11c.71-4.77.71-9.69,2.13-14.29,1-3.33,2.79-6.66,2.17-10.07-2.64,2-3.76,5.43-5.93,8-.84,1-1.82,1.82-2.73,2.75a33.47,33.47,0,0,0-3,3.65q-3,4.13-5.8,8.37c.49-4.61,1-9.25,1.48-13.87.26-2.24.5-4.49,1-6.7,1.07-5.14,3.33-9.95,5.45-14.76a11.83,11.83,0,0,0,1.23-4l.25-.3c-.12-5.59,1.14-10.38,3.46-12.12a16.57,16.57,0,0,1,3.93-2.32l2.62-1.09c-5.45-4-12.93-4.13-18.75-7.63a8.63,8.63,0,0,1,3.37-1c4.82-.67,9.63-1.31,14.44-2-6-3.76-13.4-4.27-19.83-7.2a6.18,6.18,0,0,1-1.2-.68l.62-.24s20.43-2.32,33.28,9.84l0,0a29.83,29.83,0,0,0,5.11,5.52c-5.46,12.67-9.3,81.5-9.3,81.5C179.72,560.16,179.49,567.83,179.27,575.47Z"/><path class="cls-8" d="M178.93,458c1.85,2.86,3.57,5.39,5.18,7.52-12.85-12.16-33.28-9.84-33.28-9.84l-.62.24a2.25,2.25,0,0,1-1.1-1.92c3.89-2.79,10.12.2,13.73-2.92q-13-2.31-26.14-4.55-10.35-1.77-20.62-3.5l.66-4,18.71-16.62,0-.3,21.4,1.63c1,1.78,2.06,3.41,3.11,4.9C167.76,439.67,173.84,450,178.93,458Z"/><path class="cls-4" d="M178.09,785.06a77.39,77.39,0,0,1,0,8.75c0,.7-.06,1.41-.11,2.06H157.81c2.52-12.83-9.75-23.57-11.6-25.11a45,45,0,0,1,14,.86c6.79,1.65,14.82,7.39,15.51,8.82s2.3,4.62,2.3,4.62Z"/><path class="cls-4" d="M146.21,770.76c-2.59.15-5.26.47-8,.86-7.64,1.07-16.15,8.35-16.69,8.8,2-2.94,3.87-5.37,4.56-6.31,1.67-2.28,2.9-11.82,2.9-11.82v-.06l21.58,1.46,15.49,1s.84,1.87.84,1.89c1.74,3.93,9,10.12,9,10.12a10.59,10.59,0,0,1,1.85,5.24c.15,1,.26,2,.32,3.07h0s-1.61-3.2-2.3-4.62-8.72-7.17-15.51-8.82A45,45,0,0,0,146.21,770.76Z"/><path class="cls-4" d="M157.81,795.87H178c-.23,3.48-.53,6-.53,6l-21.91.11v-.11A19.81,19.81,0,0,0,157.81,795.87Z"/><path class="cls-11" d="M172.18,474.32l-2.62,1.09a16.57,16.57,0,0,0-3.93,2.32c-2.32,1.74-3.58,6.53-3.46,12.12l-.25.3a11.83,11.83,0,0,1-1.23,4c-2.12,4.81-4.38,9.62-5.45,14.76-.45,2.21-.69,4.46-1,6.7-.49,4.62-1,9.26-1.48,13.87q2.81-4.24,5.8-8.37a33.47,33.47,0,0,1,3-3.65c.91-.93,1.89-1.79,2.73-2.75,2.17-2.54,3.29-5.95,5.93-8,.62,3.41-1.14,6.74-2.17,10.07-1.42,4.6-1.42,9.52-2.13,14.29a47.7,47.7,0,0,1-3,11l-1.15-.24c.1-.6.23-1.2.36-1.8-4.75-10.06-11,186-9.09,186l-1.67,4.38c.28,10,.58,20.11-.56,30.08l-.22,3.09L129,762.23l-8.51-.58s-7.07-94.39-4.58-113.1-6.22-81.91-6.22-81.91L106.8,441.47h.32c3,.5,6,1,9,1.51q10.28,1.71,20.62,3.5,13.14,2.25,26.14,4.55c-3.61,3.12-9.84.13-13.73,2.92a2.25,2.25,0,0,0,1.1,1.92,6.18,6.18,0,0,0,1.2.68c6.43,2.93,13.86,3.44,19.83,7.2-4.81.67-9.62,1.31-14.44,2a8.63,8.63,0,0,0-3.37,1C159.25,470.19,166.73,470.28,172.18,474.32Z"/><path class="cls-12" d="M170.38,409.34H149.87c-5.78-13.71-10.74-29.8-14.14-41.93-.15-.5-.28-1-.41-1.44l.24-.07a31.45,31.45,0,0,0,20,.2l.15-.05C160.46,381.61,170.38,409.34,170.38,409.34Z"/><path class="cls-6" d="M155.41,121.64c5.39-1.74,8.38-9.13,9.86-14.41a39.8,39.8,0,0,1-1.18,6.77c-.54,2-1.27,3.78-2.34,7a29.55,29.55,0,0,1-1.19,3.16,15.82,15.82,0,0,1-7.11,7.41,7.18,7.18,0,0,1-.68.34,21.85,21.85,0,0,1-2.32.93c-1.12.38-5.57,1.63-11.63,3.09-.1-2-.19-4.66-.23-7.95v0C143.57,126.33,149.54,123.53,155.41,121.64Z"/><path class="cls-11" d="M162.11,540.14c-.13.6-.26,1.2-.36,1.8a149.31,149.31,0,0,0-2.56,19.74c-.82,13.21,0,26.44.11,39.66.13,19.35-1.4,38.66-3,57.95-.51,6.36-1,12.76-.34,19.1.52,4.53,1.61,9,2,13.53,1,11.39-2.43,22.62-4.83,33.79-.07.3-.13.43-.18.43C151.13,726.14,157.36,530.08,162.11,540.14Z"/><path class="cls-9" d="M146.21,770.76c1.85,1.54,14.12,12.28,11.6,25.11H115.58c0-.75,0-1.57,0-2.45,0-3.44,3.07-8.74,6-13l0,0c.54-.45,9.05-7.73,16.69-8.8C141,771.23,143.62,770.91,146.21,770.76Z"/><path class="cls-9" d="M115.58,795.87h42.23a19.81,19.81,0,0,1-2.27,6V802l-40,.19S115.58,800.06,115.58,795.87Z"/><path class="cls-7" d="M156.87,423.71l-21.4-1.63-28.93-2.22-16.2-1.22V357.33h2.88q21.14,5.07,42.28,10.14l.23-.06c3.4,12.13,8.36,28.22,14.14,41.93A131.25,131.25,0,0,0,156.87,423.71Z"/><path class="cls-1" d="M155.75,366.05l-.15.05a31.45,31.45,0,0,1-20-.2l-.24.07c-2.81-10.14-4.44-17.19-4.44-17.19l.15-.6c9.88,2.56,17.1,4.56,17.1,4.56s1.82.49,4.76,1.35l1.12,1.29-.69.9C153.32,357.55,154.29,361.2,155.75,366.05Z"/><path class="cls-6" d="M126.26,77.71c-.37.26-.82.58-1.23.39a1,1,0,0,1-.49-.56c-.9-2.08-2.36-3.91-3.44-5.9A9.87,9.87,0,0,0,116,67.32l0-.3c10.23,1.22,26.83,2.85,31.79,1.26,3.63-1.16,6.15,2.73,7.89,7.11l-.22.09a88.16,88.16,0,0,1-9.75,1.61,28,28,0,0,1-5,.28c-2.45-.11-4.85-.79-7.3-1.07s-5.11-.09-7.11,1.39A0,0,0,0,0,126.26,77.71Z"/><path d="M142.26,309.34l10,13.9C151.33,322.83,143.68,311.47,142.26,309.34Z"/><path class="cls-1" d="M142.26,309.34c1.42,2.13,9.07,13.49,10,13.9l-25.8-10.82a69.16,69.16,0,0,1-3.73-6.32q-1.32-2.55-2.28-4.88c6.42,2.37,14.22,5.2,21.55,7.78l0,0Z"/><path class="cls-2" d="M148.75,281c-1.27-.11-2.51-.22-3.74-.35-2-.19-4.12-.49-6.23-.84v0c-8.23-5.6-14.69-30.76-19.33-56.77a243.18,243.18,0,0,0,13.4,31.28A246.28,246.28,0,0,0,148.75,281Z"/><path class="cls-13" d="M140.54,103l.09,0a27.22,27.22,0,0,1-7.26,9.19,27.54,27.54,0,0,1-14.61,6,19.82,19.82,0,0,1-.49-2.62c0-.52-.63-5.39-1.18-9.5Z"/><path class="cls-1" d="M138.78,279.74v0a163,163,0,0,1-25.9-7.15c-13.19-16.28-18.76-68.42-20.69-93.42-.64-8.29-.9-13.6-.9-13.6l-.22-.36a44.39,44.39,0,0,1,10.57-4.79c3-.88,6.1-1.85,9.13-2.79l.07.23s2.92,33.19,8.61,65.09C124.09,249,130.55,274.14,138.78,279.74Z"/><path class="cls-2" d="M135.73,367.41l-.23.06q-21.15-5.06-42.28-10.14H90.34V339.85l.07-.93c11.83,2.07,28.31,6.1,40.62,9.26l-.15.6s1.63,7.05,4.44,17.19C135.45,366.44,135.58,366.91,135.73,367.41Z"/><path class="cls-8" d="M135.47,422.08l0,.3L116.74,439l-.66,4c-3-.52-6-1-9-1.51h-.32l-.45-19.09.19-2.52Z"/><path class="cls-2" d="M126.49,312.42l-1-.43-19.33-11a17.91,17.91,0,0,1-4-4.15,17.57,17.57,0,0,1-2.15-4.19c3.61,1.85,6.34,3.35,6.34,3.35s6,2.24,14.13,5.24q1,2.32,2.28,4.88A69.16,69.16,0,0,0,126.49,312.42Z"/><path class="cls-2" d="M112.88,272.61c-9.07-3.22-15.47-6.14-15.47-6.14s-8.92-5.63-19.63-12.33l5.3-.82c2.54-2.51,2.92-6.53,2-10s-2.85-6.5-4.55-9.62-3.2-6.53-3-10.07q2.89,6.76,6.14,13.4c1.42-8.57,4.92-16.84,5-25.52,0-7.5-1.53-9.3-1.59-15,0-4.12.83-10,5.13-17.31C94.12,204.19,99.69,256.33,112.88,272.61Z"/><path class="cls-7" d="M91.29,165.59s.26,5.31.9,13.6c-4.3,7.28-5.16,13.19-5.13,17.31.06,5.74,1.63,7.54,1.59,15-.05,8.68-3.55,17-5,25.52q-3.25-6.63-6.14-13.4c-.17,3.54,1.33,7,3,10.07s3.65,6.17,4.55,9.62.5,7.46-2,10l-5.3.82c-2.47-1.53-5-3.14-7.61-4.73a32.77,32.77,0,0,0-13.72-4.55s10-54.48,15.81-63.35c1-1.5,8.8-10.27,18.81-16.28Z"/><path d="M65.3,277.4l-.78,1.23v0c-.17.82-.66,1.2-1.42,1.87a3.2,3.2,0,0,1-2.77.56,3.76,3.76,0,0,1-2.94-3.1,3.84,3.84,0,0,1,2.94-3.91C61.69,273.92,63.13,275,65.3,277.4Z"/><path class="cls-6" d="M51.07,266.6a57.92,57.92,0,0,0-4.85,4.92,20.11,20.11,0,0,0-1.93,2.64,15.19,15.19,0,0,0-1.36,2.49c-.49,1.7,1,3.82,3.33,5.89-1.67.19-5.13.4-8-1.44a4.08,4.08,0,0,1-2-2.26,4.37,4.37,0,0,1,.75-3.29,18.76,18.76,0,0,1,5.5-6.12A18,18,0,0,1,51.07,266.6Z"/><path class="cls-10" d="M47.32,257.1a.77.77,0,0,1,.3.54c0,.41-.78.62-1.92.84Z"/><path class="cls-10" d="M47.32,257.1l-1.62,1.38c-3,.51-8.59,1-11,4.92-1.53,2.51-1.16,5.52-.67,7.6l.26.07a18.48,18.48,0,0,0-.6,1.82A16.25,16.25,0,0,1,32,272a12.85,12.85,0,0,1-3.43-3c-1.42-1.89-1.92-4.36.81-7.09a69.86,69.86,0,0,1,5.72-5.09h0c1.18-1,2.3-1.8,3.28-2.53C43.11,255.17,46.35,256.24,47.32,257.1Z"/><path class="cls-6" d="M45.7,258.48l-4.64,3.93a19.06,19.06,0,0,0-6.74,8.66l-.26-.07c-.49-2.08-.86-5.09.67-7.6C37.11,259.47,42.72,259,45.7,258.48Z"/><path class="cls-6" d="M38.44,254.27c-1,.73-2.1,1.57-3.28,2.53h0L7.19,258.16s-8.44.6-6.36-4.52a119,119,0,0,1,24-1A105.5,105.5,0,0,1,38.44,254.27Z"/><path class="cls-6" d="M33.72,272.89a19.49,19.49,0,0,0-.65,4.77,34.1,34.1,0,0,1-7.62-1.27A15.35,15.35,0,0,0,32,272.07L32,272A16.25,16.25,0,0,0,33.72,272.89Z"/><path class="cls-6" d="M33.07,278.11a7.15,7.15,0,0,0,.3,2.08S19,282.26,21.11,277.06s7.5-8.08,7.5-8.08A12.85,12.85,0,0,0,32,272l-.06.1a15.35,15.35,0,0,1-6.53,4.32,34.1,34.1,0,0,0,7.62,1.27Z"/><path class="cls-14" d="M138.82,136c6.06-1.46,10.51-2.71,11.63-3.09a21.85,21.85,0,0,0,2.32-.93,7.18,7.18,0,0,0,.68-.34,15.82,15.82,0,0,0,7.11-7.41,29.55,29.55,0,0,0,1.19-3.16c1.07-3.24,1.8-5,2.34-7a39.8,39.8,0,0,0,1.18-6.77"/><path class="cls-14" d="M138.78,136h0"/><path class="cls-14" d="M175.41,96.21c-2,8.18-.5,16.78,1.82,24.85a63.09,63.09,0,0,0,2.34,6.88c2,4.64,6.43,13,16.59,21"/><path class="cls-15" d="M120.48,301.22q1,2.32,2.28,4.88a69.16,69.16,0,0,0,3.73,6.32"/><path class="cls-15" d="M142.26,309.34c1.42,2.13,9.07,13.49,10,13.9"/><line class="cls-15" x1="142.26" y1="309.34" x2="142.05" y2="309.02"/><path class="cls-16" d="M135.56,365.9a31.45,31.45,0,0,0,20,.2"/><path class="cls-17" d="M163.44,366.57a42.25,42.25,0,0,1,11.19,1.8c6.53,2,9.35,4.71,14.2,7.61,16.16,9.66,41,13.27,44,13.38a2.93,2.93,0,0,1,2.07.6,2.74,2.74,0,0,1,.49,2.09,22.29,22.29,0,0,1-2,7.77,5.53,5.53,0,0,0-.76,2.43,3.4,3.4,0,0,0,2.93,2.9,9.92,9.92,0,0,0,4.4-.52l33.7-9.3a89.4,89.4,0,0,0-20.9,14.89A88.21,88.21,0,0,0,241.2,423.8"/><path class="cls-18" d="M93.22,357.33q21.14,5.07,42.28,10.14"/><path class="cls-14" d="M237.77,361.87A82.15,82.15,0,0,0,246,358"/><path class="cls-14" d="M68.09,327.54c38.66,4.21,77.09,12.57,113,27.49,9.84,4.09,19.59,8.68,30.07,10.59a42.64,42.64,0,0,0,8.23.73,40.5,40.5,0,0,0,7.91-.77.07.07,0,0,0,.06,0,37.65,37.65,0,0,0,8.23-2.73"/><path class="cls-14" d="M62.59,284.34c-.69.11-7.91,1-11.73-3.87-.28-.36-3.52-4.38-1.83-7.56a8,8,0,0,1,4.3-3.31c8.31-3.35,17.89-1.56,26.14,2s15.77,8.61,24,12.22a142.47,142.47,0,0,0,17.5,6c32.87,9.67,65.78,19.31,99.35,26.19,1.57.32,3.31.6,4.69-.2a6.73,6.73,0,0,0,2.27-2.87c2.41-4.62,4.73-9.31,7-14s4.38-9.45,6.45-14.26c1.05-2.48,2.06-5.5.51-7.72a6.56,6.56,0,0,0-3.44-2.32c-3.28-1-9.15-4.1-20.42-12.69"/><path class="cls-14" d="M4,253.9c11.21-.56,22.53,2.26,33.64.52"/><path class="cls-14" d="M46.26,282.54c-1.67.19-5.13.4-8-1.44a4.08,4.08,0,0,1-2-2.26,4.37,4.37,0,0,1,.75-3.29,18.76,18.76,0,0,1,5.5-6.12,18,18,0,0,1,8.59-2.83"/><path class="cls-14" d="M33.44,277.68a2.3,2.3,0,0,1-.37,0,34.1,34.1,0,0,1-7.62-1.27A15.35,15.35,0,0,0,32,272.07"/><path class="cls-18" d="M83.08,253.32c2.54-2.51,2.92-6.53,2-10s-2.85-6.5-4.55-9.62-3.2-6.53-3-10.07q2.89,6.76,6.14,13.4c1.42-8.57,4.92-16.84,5-25.52,0-7.5-1.53-9.3-1.59-15,0-4.12.83-10,5.13-17.31"/><path class="cls-18" d="M212.16,213.28c2.88,0,5.41-2.25,6.66-4.87s1.5-5.78,2-8.75a56.91,56.91,0,0,1,5.63-17.53,35.62,35.62,0,0,0-.32,16.74l13.4-12.7"/><path class="cls-18" d="M212.16,213.28a66.92,66.92,0,0,0,.26-9.28c-.19,3.09-.37,6.19-.54,9.28Z"/><path class="cls-18" d="M204.84,279.89c-2.67-17-13.58-32.52-12.57-49.68a1.11,1.11,0,0,1,.24-.75,1,1,0,0,1,1.13,0c2.09,1,3.53,3,4.82,4.9a83.91,83.91,0,0,1,11.1,25.28c0-3.42,0-6.83,0-10.25,0-5.84,0-11.68.45-17.5.52-6.23,1.63-12.44,2.19-18.65"/><path class="cls-18" d="M253.55,264.94c-.17-2.12-1.18-15.06-1.5-25.09a25.12,25.12,0,0,1,.56-6.87c.71-3,2.26-5.78,3.54-8.61a58.09,58.09,0,0,0,4.86-31.6c-1.12-8.79-5-18.05-12.87-22a33.62,33.62,0,0,0-13.92-3.42c-8.44-.45-20.19-3-35.18-12-1.94-1.16-3.93-2.43-6-3.83"/><path class="cls-19" d="M146,770.56l.23.2c1.85,1.54,14.12,12.28,11.6,25.11a19.81,19.81,0,0,1-2.27,6"/><path class="cls-19" d="M178.2,794.21s0-.15,0-.4c.24-2.45,2-15.11,15.36-16,.88,0,1.78,0,2.75,0,14.46.71,25.88,2.43,33.72,3.27,1.59.17,3,.32,4.34.41,6.83.47,18.33,0,21.64,14.37a36.86,36.86,0,0,1,.81,5.6"/><path class="cls-20" d="M254.13,312.2a49.43,49.43,0,0,0,4.41,14.18c2.58,4.94,6.34,9.15,9.77,13.51,11.19,14.18,19.31,30.52,26.51,47.09"/><path class="cls-16" d="M291.49,397.33A71.29,71.29,0,0,1,302,427"/><path class="cls-21" d="M202.24,756.92c-1-16.45-.22-32.95,1-49.38,1.2-16.16,2.81-32.37,6.59-48.14a34.48,34.48,0,0,0-11.32,12.14c-.39.68-.75,1.39-1.1,2.12"/><path class="cls-21" d="M198.05,593.07a18.08,18.08,0,0,1,1.09,3c.45,1.55.67.73,1,6,.15,2.32.28,4.62.43,6.94a1.69,1.69,0,0,1-.28,1.26,1.52,1.52,0,0,1-1,.35,10.92,10.92,0,0,1-6.32-2.17,27.64,27.64,0,0,1-11.1-14.72c2.43,19.55-1.57,39.47.54,59.08.49,4.62,1.33,9.21,1.39,13.85.07,4.28-.56,8.57-.36,12.85A52.32,52.32,0,0,0,186.49,695"/><path class="cls-21" d="M198.05,593.07a27.32,27.32,0,0,1-4.81-3.53,5,5,0,0,1,2.25.63A5.84,5.84,0,0,1,198.05,593.07Z"/><path class="cls-21" d="M197,670.85a168.91,168.91,0,0,1,.3-23.05,73.3,73.3,0,0,1,1.92-12.61c1.22-4.7,3.15-9.19,4.79-13.77a118.55,118.55,0,0,0,5.37-20.32,5.85,5.85,0,0,0,0-2.79c-.73-2.17-3.89-2.45-6.55-3.23l-.11,0a22.12,22.12,0,0,1-4.64-2"/><path class="cls-21" d="M198.41,508.8c-2.25,3.75-3.35,8.07-4.42,12.3-2.26,9.09-4.47,18.28-4.58,27.63s2,19,7.74,26.44c2.75,3.59,6.59,6.73,11.1,7.11a4.69,4.69,0,0,0,2.26-.23,5.6,5.6,0,0,0,2-1.62c3.33-3.75,5.24-8.59,6.31-13.51a101.52,101.52,0,0,0,1.61-15,429.91,429.91,0,0,1,5-42.94c.56-3.33,1.16-6.79.36-10.1a1.6,1.6,0,0,0-.49-.94,1.69,1.69,0,0,0-1.5,0,22.42,22.42,0,0,0-7.41,4.36,31.87,31.87,0,0,1-3.76,3.24,12,12,0,0,1-8.92,1.29,7,7,0,0,0-2.86-.3c-.94.2-1.82,1.12-1.56,2"/><path class="cls-21" d="M107.12,441.47c3,.5,6,1,9,1.51q10.28,1.71,20.62,3.5,13.14,2.25,26.14,4.55c-3.61,3.12-9.84.13-13.73,2.92a2.25,2.25,0,0,0,1.1,1.92,6.18,6.18,0,0,0,1.2.68c6.43,2.93,13.86,3.44,19.83,7.2-4.81.67-9.62,1.31-14.44,2a8.63,8.63,0,0,0-3.37,1c5.82,3.5,13.3,3.59,18.75,7.63l-2.62,1.09a16.57,16.57,0,0,0-3.93,2.32c-2.32,1.74-3.58,6.53-3.46,12.12"/><path class="cls-21" d="M161.92,490.15a11.83,11.83,0,0,1-1.23,4c-2.12,4.81-4.38,9.62-5.45,14.76-.45,2.21-.69,4.46-1,6.7-.49,4.62-1,9.26-1.48,13.87q2.81-4.24,5.8-8.37a33.47,33.47,0,0,1,3-3.65c.91-.93,1.89-1.79,2.73-2.75,2.17-2.54,3.29-5.95,5.93-8,.62,3.41-1.14,6.74-2.17,10.07-1.42,4.6-1.42,9.52-2.13,14.29a47.7,47.7,0,0,1-3,11"/><path class="cls-21" d="M153,726.14c-1.89,0,4.34-196.06,9.09-186-.13.6-.26,1.2-.36,1.8a149.31,149.31,0,0,0-2.56,19.74c-.82,13.21,0,26.44.11,39.66.13,19.35-1.4,38.66-3,57.95-.51,6.36-1,12.76-.34,19.1.52,4.53,1.61,9,2,13.53,1,11.39-2.43,22.62-4.83,33.79C153.13,726,153.07,726.14,153,726.14Z"/><path class="cls-21" d="M151.35,730.52c.28,10,.58,20.11-.56,30.08"/><path class="cls-15" d="M106.35,422.38l.45,19.09,2.88,125.17s8.72,63.2,6.22,81.91,4.58,113.1,4.58,113.1l8.51.58,21.58,1.46,15.49,1,7.65.52.13-4.45q2.5-85.65,5-171.29.18-7,.4-14c.22-7.64.45-15.31.67-23,0,0,3.84-68.83,9.3-81.5a7.43,7.43,0,0,1,.67-1.25"/><line class="cls-15" x1="173.84" y1="760.81" x2="175.08" y2="760.81"/><path class="cls-15" d="M256.84,459.39c-10.61,52.48-17.16,97.74-21.37,133.4-5.63,47.79-8.08,86.89-9.52,110.37-1.42,23.15-2.28,42.83-2.79,57.65H175.08"/><path class="cls-15" d="M184.13,465.49a29.83,29.83,0,0,0,5.11,5.52,10.82,10.82,0,0,0,1.57,1,6.27,6.27,0,0,0,1.59.65c7.9,2.08,41.18-1.66,52.8-7.48,3.11-1.57,7.15-3.65,11.56-6,12-6.45,26.72-14.82,32.52-19.38,7.9-6.23,15.38-10,15.38-12a89.2,89.2,0,0,0-14.61-33.7"/><path class="cls-15" d="M130.88,348.78s1.63,7.05,4.44,17.19c.13.47.26.94.41,1.44,3.4,12.13,8.36,28.22,14.14,41.93a131.25,131.25,0,0,0,7,14.37c1,1.78,2.06,3.41,3.11,4.9,7.78,11.06,13.86,21.41,19,29.34,1.85,2.86,3.57,5.39,5.18,7.52"/><line class="cls-15" x1="116.74" y1="439" x2="135.45" y2="422.38"/><path class="cls-15" d="M153.32,443.17A53,53,0,0,1,178.93,458"/><path class="cls-15" d="M150.83,455.63s20.43-2.32,33.28,9.84l0,0"/><path class="cls-15" d="M203.63,592s-21-15.31-24.36-16.54a.9.9,0,0,0-.34-.08"/><path class="cls-15" d="M193.64,604.9s-6.4-7.09-10.87-11.68a44.28,44.28,0,0,0-3.84-3.7"/><path class="cls-15" d="M121.51,780.44c-2.88,4.24-6,9.54-6,13,0,.88,0,1.7,0,2.45,0,4.19,0,6.31,0,6.31l40-.19,21.91-.11,79.39-.41,18.05-.08a55,55,0,0,0,.21-5.52c-.13-8.27-2.36-15-6.7-17.36a28.71,28.71,0,0,0-5.82-2,33.15,33.15,0,0,0-9.69-.86c-10.87.52-17.74.84-22.32.3a15.34,15.34,0,0,1-4.12-.92c-3.85-1.51-8.66-5-12.57-14.18"/><path class="cls-15" d="M129,762.29s-1.23,9.54-2.9,11.82c-.69.94-2.58,3.37-4.56,6.31"/><path class="cls-15" d="M177.45,801.88s.3-2.53.53-6c.05-.65.09-1.36.11-2.06a77.39,77.39,0,0,0,0-8.75c-.06-1.07-.17-2.1-.32-3.07a10.59,10.59,0,0,0-1.85-5.24s-7.28-6.19-9-10.12c0,0-.84-1.89-.84-1.89"/><path class="cls-15" d="M178.2,760.81q-.19,10.58-.43,21.18"/><path class="cls-15" d="M121.51,780.44l0,0c.54-.45,9.05-7.73,16.69-8.8,2.73-.39,5.4-.71,8-.86a45,45,0,0,1,14,.86c6.79,1.65,14.82,7.39,15.51,8.82s2.3,4.62,2.3,4.62"/><polyline class="cls-15" points="115.56 795.87 115.58 795.87 157.81 795.87 177.99 795.87 256.02 795.87 275.1 795.87"/><path class="cls-15" d="M187.29,760.81s-3.2,12.61,3.58,12.74c.93,0,1.81,0,2.62,0,5.09-.15,7.93-1.27,9.58-4,1.94-3.18,3.05-8.72,3.05-8.72"/><path class="cls-15" d="M149.87,409.34h20.51s-9.92-27.73-14.63-43.29c-1.46-4.85-2.43-8.5-2.43-9.77"/><path class="cls-15" d="M151.67,352.74l1.22,1.35,1.12,1.29c2.15,2.47,5.54,6.46,9.3,11.3,8.68,11.15,19.29,26.74,21,38,1.89,12.69,4.49,21.8,8.23,26.55,2,2.58,4.38,3.89,7.15,3.8,4.58-.11,23.93-5.05,41.63-11,12.91-4.29,24.94-9.15,29.67-13,6.59-5.42,14-12.25,19.07-17,3.55-3.31,5.89-5.59,5.89-5.59s-11.09-30.35-18.71-37.85-21.2-28.48-21.14-34.09-4.32-6.31-4.32-6.31"/><polyline class="cls-15" points="156.87 423.71 135.47 422.08 106.54 419.86 90.34 418.64 90.34 357.33 90.34 339.85"/><path class="cls-15" d="M63.1,287.67l1.66,34.09a14,14,0,0,0,1.63,5.8c2.11,4.06,6.92,9,17.92,10.42,1.82.23,3.88.56,6.1.94,11.83,2.07,28.31,6.1,40.62,9.26,9.88,2.56,17.1,4.56,17.1,4.56s1.82.49,4.76,1.35c3.48,1,8.53,2.56,14,4.34,13.38,4.36,19.95,6.87,26.51,10.87,8.89,5.41,9.17,6.64,15.46,8.63,1.16.39,6.21,1.12,16.26,2.6,4.88.73,9,1.29,9.65-.13.26-.55-.13-1.31-.56-1.89-8.55-3.26-12.7-4.72-14.48-5.2-.45-.12-2.17-.55-2.17-1.09,0-.17.24-.32.39-.41,2.62.73,26.33,7.37,31,5.52.15-.06.56-.23.58-.49.11-1.74-17-6.51-22.06-9.35,0,0-.35-.17-.3-.25s.21-.05.58,0c3.82.75,25.06,7.65,27.84,5.48a.18.18,0,0,0,.1-.13c0-.13-.43-1.76-20.08-9.84-2.54-1.05-5.37-2.19-8.57-3.46,3.56.9,7.13,1.74,10.69,2.6,1.64.41,3.29.82,4.92,1.25,7,1.84,10.7,3,11.28,1.95.28-.52-.36-1.37-.62-1.74-1.27-1.65-3.95-3.52-7.37-5.43-11.84-6.6-32.35-13.6-32.35-13.6l25.65-1.81s8-4.7-7.78-6.23c-1.46-.15-3.05-.25-4.79-.36-17-1-45.49-.6-53.61-4l-20.78-8.7-25.8-10.82-1-.43-19.33-11a17.91,17.91,0,0,1-4-4.15,17.57,17.57,0,0,1-2.15-4.19"/><path class="cls-15" d="M83.47,304.3s8.38-8,20.08-5.55"/><path class="cls-15" d="M262.38,267.16s-3.22,24.4-10.61,43.09c-4.47,11.32-10.46,20.51-18.21,20.94a56.06,56.06,0,0,1-6.58-.06c-21.2-1.38-53-12.42-63-14.91-4-1-12.59-3.89-21.95-7.2l0,0c-7.33-2.58-15.13-5.41-21.55-7.78-8.16-3-14.13-5.24-14.13-5.24s-2.73-1.5-6.34-3.35C94.34,289.75,86.43,286,83.47,286c-4.84,0-12.89-2.52-14.54-4.45l-.46-.52c-1.22-1.44-2.27-2.66-3.17-3.65-2.17-2.36-3.61-3.48-5-3.31A3.84,3.84,0,0,0,57.39,278a3.76,3.76,0,0,0,2.94,3.1,3.2,3.2,0,0,0,2.77-.56c.76-.67,1.25-1.05,1.42-1.87v0a18.26,18.26,0,0,1-1.74,5.8,8.19,8.19,0,0,1-2.55,3.13c-1.46,1-3.36,1.29-5.85.11-1-.47-2-1-2.92-1.53a36.75,36.75,0,0,1-5.2-3.6c-2.36-2.07-3.82-4.19-3.33-5.89a15.19,15.19,0,0,1,1.36-2.49,20.11,20.11,0,0,1,1.93-2.64,57.92,57.92,0,0,1,4.85-4.92c.46-.43,1-.91,1.49-1.44,1.46-1.4,2.17-2.06,2.17-2.06"/><path class="cls-15" d="M51.44,286.17s-15.75,2.19-18.07-6a7.15,7.15,0,0,1-.3-2.08v-.45a19.49,19.49,0,0,1,.65-4.77,18.48,18.48,0,0,1,.6-1.82,19.06,19.06,0,0,1,6.74-8.66l4.64-3.93,1.62-1.38,2-1.65"/><path class="cls-15" d="M35.16,256.8c1.18-1,2.3-1.8,3.28-2.53,2.6-1.87,4.43-3,4.43-3"/><path class="cls-15" d="M33.72,272.89A16.25,16.25,0,0,1,32,272a12.85,12.85,0,0,1-3.43-3c-1.42-1.89-1.92-4.36.81-7.09a69.86,69.86,0,0,1,5.72-5.09"/><path class="cls-15" d="M33.37,280.19S19,282.26,21.11,277.06s7.5-8.08,7.5-8.08"/><path class="cls-15" d="M230.44,298.28s-10-12.89-15.16-14.78"/><path class="cls-15" d="M56.45,244.86s10-54.48,15.81-63.35c1-1.5,8.8-10.27,18.81-16.28a44.39,44.39,0,0,1,10.57-4.79c3-.88,6.1-1.85,9.13-2.79,2.34-.71,4.7-1.4,7.07-2a91.68,91.68,0,0,0,10.61-3.55,25.34,25.34,0,0,0,4.3-2,11.84,11.84,0,0,0,1.41-1,13.08,13.08,0,0,0,4.62-6.35c.45-1.57.28-2.41.07-6.3,0-.15,0-.3,0-.45v0c-.1-2-.19-4.66-.23-7.95"/><path class="cls-15" d="M118.76,118.23a27.54,27.54,0,0,0,14.61-6,27.22,27.22,0,0,0,7.26-9.19s0,0,0,0"/><line class="cls-15" x1="117.09" y1="106.11" x2="140.54" y2="102.98"/><path class="cls-15" d="M91.29,165.59s.26,5.31.9,13.6c1.93,25,7.5,77.14,20.69,93.42"/><path class="cls-15" d="M110.84,157.88s2.92,33.19,8.61,65.09c4.64,26,11.1,51.17,19.33,56.77"/><path class="cls-15" d="M166.49,210.62s11.37,57.37,31.6,72.88"/><path class="cls-15" d="M160.67,257.47s9.62,21,18.54,25.47"/><path class="cls-15" d="M291.49,267.16s-13.49-.22-29.06-1c-2.92-.15-5.91-.32-8.92-.52-18.06-1.09-36-2.94-37.2-6l-.09,2.17-.94,21.71h-22s-5.76-.17-14-.56c-8.64-.4-20-1.05-30.46-2-1.27-.11-2.51-.22-3.74-.35-2-.19-4.12-.49-6.23-.84a163,163,0,0,1-25.9-7.15c-9.07-3.22-15.47-6.14-15.47-6.14s-8.92-5.63-19.63-12.33c-2.47-1.53-5-3.14-7.61-4.73a32.77,32.77,0,0,0-13.72-4.55A45.09,45.09,0,0,0,39.6,246.3l-26.18,2.3s-10-.63-12.48,4.76a2,2,0,0,0-.11.28c-2.08,5.12,6.36,4.52,6.36,4.52l28-1.36h0"/><path class="cls-15" d="M243,179.86c-1.16,2-2.32,4.1-3.51,6.31a213.12,213.12,0,0,0-23.17,73.45"/><path class="cls-15" d="M165.29,107.12a48.53,48.53,0,0,0,1.2-5.43"/><path class="cls-14" d="M165.27,107.23s0-.09,0-.11"/><path class="cls-15" d="M132.77,150.13s4.31,3.73,12.48,6.08a49.35,49.35,0,0,0,17.85,1.67c16.47-1.33,25-3.82,30-6.36a24.32,24.32,0,0,0,2.45-1.39c.28-.2.58-.39.86-.58a96.93,96.93,0,0,0,8.64-6.83s-26-17.94-21.33-32.12,10.5-19.16,10.37-34.41,7.37-20.79,8.19-31,1.39-35.21-15-37.7S167.33.23,160.11.51,132.29,4.4,118.76,4.4,84.18,3.56,82.5,20.19s-.28,24.4,7.22,31.88c6.55,6.57,15.29,10.46,18,13.85a3.94,3.94,0,0,1,.73,1.4s1,1.37,1.54,10.52S100,102,100,102l16.34-1.68s.37,2.69.78,5.82c.55,4.11,1.18,9,1.18,9.5a19.82,19.82,0,0,0,.49,2.62,40.22,40.22,0,0,0,2.84,8.4c1.65,3.05,5.26,3.05,10.8,2.77a24.94,24.94,0,0,0,6.19-1.42c5-1.65,10.95-4.45,16.82-6.34,5.39-1.74,8.38-9.13,9.86-14.41"/><path class="cls-15" d="M143.44,162.33a62.87,62.87,0,0,0,21.74,3.26c11.22-.58,29.65-5.56,32.91-8.67"/><path class="cls-15" d="M291.49,267.16a206.06,206.06,0,0,0-2.9-43.8c-4.62-26.36-8-45.65-23-56.39-7.17-5.14-7.13-1.27-35.33-13.17,0,0-2.75-1.16-25.24-11.08"/><path class="cls-15" d="M107.68,65.92s3.43.5,8.31,1.1c10.23,1.22,26.83,2.85,31.79,1.26,3.63-1.16,6.15,2.73,7.89,7.11s2.77,9.46,3.33,10.08c1.11,1.25,5.82,2.77,6-4.58s3.89-20.79,9.71-18.71S185.61,79,180.07,86.52s-7.48,8.79-7.48,8.79l2.58-.45,3.52-.65s.69,12.55,5,16.39"/><polyline class="cls-15" points="125.74 77.72 126.26 77.72 136.42 77.72"/></g></g></svg>