<svg xmlns="http://www.w3.org/2000/svg" viewBox="0 0 398.36 642.13"><defs><style>.cls-1{fill:#603813;}.cls-2{fill:#42210b;}.cls-3{fill:#bc8183;}.cls-4{fill:#74839a;}.cls-5{fill:#819fb1;}.cls-6{fill:#bb8981;}.cls-7{fill:#a37173;}.cls-8{fill:#da9d95;}.cls-9{fill:#fffbef;}.cls-10{fill:#b28d8a;}.cls-11{fill:#ceab9e;}.cls-12,.cls-13,.cls-14{fill:none;}.cls-12{stroke:#bc8183;}.cls-12,.cls-13{stroke-linecap:round;stroke-linejoin:round;}.cls-13,.cls-14{stroke:#000;}.cls-14{stroke-miterlimit:10;}.cls-15{fill:#140c00;}</style></defs><g id="Слой_2" data-name="Слой 2"><g id="Слой_3" data-name="Слой 3"><polygon class="cls-1" points="0.5 441.76 0.5 464.02 10.95 464.02 10.95 440.99 0.5 441.76"/><polygon class="cls-2" points="10.95 312.86 11.53 639.31 23.79 639.31 24.12 312.86 10.95 312.86"/><path class="cls-1" d="M24.12,441.76v23.13L117.6,464V441.76H97.21c-7.17.2-13.13.13-17.61,0Z"/><path class="cls-3" d="M30.37,266.28a125.38,125.38,0,0,0-2.84,29.28,23.48,23.48,0,0,1,2.68-10.76,28.8,28.8,0,0,1,4.07-5.62A18.84,18.84,0,0,1,38.73,275a21.62,21.62,0,0,1,7.55-2.71s9.18-1.53,16.45-2.9a57.09,57.09,0,0,0,15-5.1,44.3,44.3,0,0,1-12.6-.28c-7.74-1.36-19.35-4.2-22.06-5.36-.67-.29-1.51-.69-2.4-1.13-2.71-1.37-5.86-3.13-5.86-3.13S32.44,258.28,30.37,266.28Z"/><path class="cls-4" d="M45.2,378.37a48.91,48.91,0,0,0-2.94,28.27s3.63,18.13,18.44,29a29.77,29.77,0,0,0,9.8,5,33.59,33.59,0,0,0,9.1,1.09h38v-7.87c-2.73.13-6.39.27-10.71.33-8.68.1-15.22-.19-17.36-.29-8.81-.43-13.25-.53-15.69-1.3C64,429.5,57.64,422.7,55.08,419.7,41.48,403.7,44.56,382.26,45.2,378.37Z"/><path class="cls-5" d="M45.2,378.37c-.64,3.89-3.72,25.33,9.88,41.33,2.56,3,8.88,9.8,18.76,12.93,2.44.77,6.88.87,15.69,1.3,2.14.1,8.68.39,17.36.29,4.32-.06,8-.2,10.71-.33V382.8l-72.33-4.52h-.05v0a.11.11,0,0,0,0,.05Z"/><path class="cls-5" d="M45.21,378.28v0Z"/><path class="cls-6" d="M45.3,378l-.08.3h.05l72.33,4.52V341.89H105.73V320.22H61.08l-.06.23Z"/><path class="cls-7" d="M50.34,320.22s-4.79,55.18-5.13,58.06h0l.08-.3L61,320.45l.06-.23Z"/><path class="cls-7" d="M79.56,264l-6,21.35H81l2.38.26q4.2-36.34,1.67-36.83c-.47-.08-1.11.75-1.92,2.5Z"/><path class="cls-8" d="M212.36,317c3,1.37,5.44,1.58,6.35.48.22-.26.59-.75.31-2.23a16.55,16.55,0,0,0-2.2-5.84,6.34,6.34,0,0,0,.88.2c1.28.19,3.45.06,3.21-3.07-.26-3.36,0-4.91-2.56-7.3q-4-2.48-8-4.93c-3.46-2.13-6.95-4.28-10.23-6.69a16.19,16.19,0,0,0-3-.18c-8,.26-14.19-1.31-16.25,0a43.75,43.75,0,0,1-9.3,4.4,47.64,47.64,0,0,1-16.13,1.55c-1.06-.07-2.59-.2-4.44-.38-11.86-1.11-37-4-37-4L83.4,285.64,81,285.38H73.54l6-21.35s-.69.14-1.88.28a57.09,57.09,0,0,1-15,5.1c-7.27,1.37-16.45,2.9-16.45,2.9A21.62,21.62,0,0,0,38.73,275a18.84,18.84,0,0,0-4.45,4.16,28.8,28.8,0,0,0-4.07,5.62,23.48,23.48,0,0,0-2.68,10.76h0c.06,2.35.22,4.65.48,6.84h0a15.61,15.61,0,0,0,6.35,7.52c3.79,2.17,7.68,1.64,9.38,1.7a288.22,288.22,0,0,0,33.38-.74c8.93-.67,17.9-1.66,26.81-.78,4.66.46,9.25,1.43,13.9,2,5.3.68,10.65.86,16,1.05,30.95,1.07,42,.54,57.64,2,4.85.45,12.35,1.28,21.57,2.87A4.85,4.85,0,0,0,212.36,317Z"/><path class="cls-7" d="M41.35,256.73c5.46-6.39,5.27-14.79,5.3-17,.08-8.94,4-22.23,9.33-32.47a56.24,56.24,0,0,1,5.1-8.17c7.75-10.07,22.5-24.91,25-28.91a40.74,40.74,0,0,0,2.79-5.29s-26.62,13.68-35.72,23.42S41.34,218,41.35,222.67s-6.59,31.74-6.59,31.74,3.15,1.76,5.86,3.13h0C40.8,257.36,41.05,257.08,41.35,256.73Z"/><path class="cls-6" d="M88.86,164.86a40.74,40.74,0,0,1-2.79,5.29c-2.49,4-17.24,18.84-25,28.91a56.24,56.24,0,0,0-5.1,8.17c-5.33,10.24-9.25,23.53-9.33,32.47,0,2.24.16,10.64-5.3,17-.3.35-.55.63-.72.8h0c.89.44,1.73.84,2.4,1.13,2.71,1.16,14.32,4,22.06,5.36a44.3,44.3,0,0,0,12.6.28c1.19-.14,1.88-.28,1.88-.28l3.59-12.72c.81-1.75,1.45-2.58,1.92-2.5q2.52.48-1.67,36.83L114,289s25.11,2.9,37,4l1.56-29.88L154,235.06a39.6,39.6,0,0,1,4.35,31.88l.25.18c11.77-16.52,20-29.11,21.91-33.13.55-1.15,1.65-3.54,1-6l-.12-.38a6.19,6.19,0,0,0-1.74-2.55c-4.1-3.77-13.44-20.49-17.64-26.94-4.43-6.79-12.12-15.93-26.42-25.81L135,172s2.45,12.9-1.42,16.32-13.42,2.78-18.58,0S100.57,175.18,97.73,172c-1.45-1.66-3.52-4.05-5.19-6-1.19-1.39-2.18-2.55-2.61-3-.33.63-.68,1.27-1.06,1.92C88.87,164.85,88.86,164.85,88.86,164.86Z"/><path class="cls-6" d="M88.87,164.84c.38-.65.73-1.29,1.06-1.92a1.47,1.47,0,0,0-.1-.13l-.1-.12S89.45,163.51,88.87,164.84Z"/><path class="cls-8" d="M97.73,172c2.84,3.22,12.13,13.55,17.29,16.32s14.71,3.42,18.58,0S135,172,135,172l.55.38a22.75,22.75,0,0,1-4.62-8.61c-.21-.75-.38-1.49-.51-2.21l-5-10.13a38.44,38.44,0,0,1-11.94-8.45,39,39,0,0,1-10.25-21.43c-.05-.17-.08-.32-.11-.45a14.86,14.86,0,0,1,.48-7.81l-2.25-1s-.39.32-2.39-.06-3.87-1.55-3.53,0-.63,17.84-.63,17.84A51.4,51.4,0,0,1,98.07,144a44.92,44.92,0,0,1-.07,8.73c-.37,3.47-.74,6.65-2.8,10A17.36,17.36,0,0,1,92.54,166C94.21,167.91,96.28,170.3,97.73,172Z"/><path class="cls-3" d="M98.07,144a51.4,51.4,0,0,0-3.21-13.89,50.05,50.05,0,0,1-.58,21.38,51.33,51.33,0,0,1-4.35,11.48c.43.49,1.42,1.65,2.61,3a17.36,17.36,0,0,0,2.66-3.31c2.06-3.32,2.43-6.5,2.8-10A44.92,44.92,0,0,0,98.07,144Z"/><path d="M95.49,112.22c-.34-1.55,1.53-.39,3.53,0s2.39.06,2.39.06a12.6,12.6,0,0,0-3.19-3,11.45,11.45,0,0,0-4-1.74c-4.64-1-13.16-4.71-14.06-9.87s0-14.84,0-14.84,1-4.9,4.39-5.16a13.43,13.43,0,0,1,5.26.45,45.52,45.52,0,0,1,7.35,14.42c.42,1.47,1,4,2.5,4.3a2.47,2.47,0,0,0,2-.85,14.21,14.21,0,0,0,2.36-3l5-32.54S119.82,46,133.41,46h.27a52.62,52.62,0,0,1,7.84.75l.1,0a55.84,55.84,0,0,1,10,2.47,70,70,0,0,1,12.33,5.37l-1.65-.42a6.87,6.87,0,0,1,2.54,2.55,1.11,1.11,0,0,0,.09.19,1.74,1.74,0,0,0,1,.89c2.75,1.07,9.32-3.23,11.62-10.47,2.71-8.51,4.42-11.48,0-19.74S164,6.32,151.75,2.75s-26.15-2.36-35.18,0-13.29,14-20.45,14.37S77.73,22,73.08,26,57.21,37.83,58.76,52.35,64,89.12,70.37,103.25s7.94,21.87,15.29,24.19a89.88,89.88,0,0,0,9.2,2.62S95.83,113.76,95.49,112.22Z"/><path class="cls-3" d="M101.69,96a2.47,2.47,0,0,1-2,.85c-1.46-.27-2.08-2.83-2.5-4.3a45.52,45.52,0,0,0-7.35-14.42,13.43,13.43,0,0,0-5.26-.45c-3.36.26-4.39,5.16-4.39,5.16s-.9,9.67,0,14.84,9.42,8.83,14.06,9.87a11.45,11.45,0,0,1,4,1.74,1.41,1.41,0,0,0,1.22-.39c.34-.51-.35-1.13-.61-2.45-.33-1.65.36-2.69,1.38-5.52A46,46,0,0,0,101.7,96Z"/><path class="cls-3" d="M108.05,129c-3.45-3.83-4.41-6.24-4.76-7.48a39,39,0,0,0,10.25,21.43,38.44,38.44,0,0,0,11.94,8.45l-6.65-13.6A44,44,0,0,1,108.05,129Z"/><polygon class="cls-1" points="105.73 320.22 105.73 341.89 117.6 341.89 129.41 341.89 145.76 341.89 371.92 341.89 384.18 341.89 397.86 341.89 397.86 319.7 250.57 319.18 231.12 319.11 213.34 319.05 105.73 318.67 105.73 320.22"/><polygon class="cls-2" points="129.71 434.03 129.54 382.17 129.41 341.89 117.6 341.89 117.6 382.8 117.6 433.89 117.6 440.99 117.6 441.76 117.6 464.02 117.6 639.76 130.37 639.76 129.81 464.89 129.71 434.03"/><path class="cls-3" d="M118.83,137.79l6.65,13.6A39.52,39.52,0,0,0,130,153.1a34.76,34.76,0,0,1,1.39-7.27c.36-1.2.74-2.18,1-2.85-1-.34-2.14-.73-3.32-1.15C123.47,139.82,120.67,138.82,118.83,137.79Z"/><path class="cls-8" d="M125.48,151.39l5,10.13a30.52,30.52,0,0,1-.44-8.42A39.52,39.52,0,0,1,125.48,151.39Z"/><path class="cls-9" d="M132.23,82.17a4.41,4.41,0,1,0,3.93,4.38A4.17,4.17,0,0,0,132.23,82.17Z"/><path class="cls-6" d="M129.41,341.89l.13,40.28c1.28.2,11.87,1.7,14.28-2.84a4.33,4.33,0,0,0,.49-1.89c0-.46,0-.89.05-1.3.3-6.11,1-7.67,1-7.67l.42-26.58Z"/><path class="cls-4" d="M130.37,441.76h59.42v23.13l2.27.38c1.15-6.61,2.39-11.86,3-14.47,1.29-5.94-2.58-18.07-12.9-16.78-9.82,1.23-48.61.12-52.41,0l.1,30.86h.56Z"/><polygon class="cls-1" points="130.37 441.76 130.37 464.89 159.02 464.89 171.02 464.89 181.95 464.89 189.79 464.89 189.79 441.76 130.37 441.76"/><path class="cls-8" d="M127.7,47.07a44.86,44.86,0,0,1,10.42-.68c1.2.07,2.33.18,3.4.32a52.62,52.62,0,0,0-7.84-.75h-.27c-13.59,0-24.33,14.42-24.33,14.42l-5,32.54a14.21,14.21,0,0,1-2.36,3h0a46,46,0,0,1-1.49,4.92c-1,2.83-1.71,3.87-1.38,5.52.26,1.32,1,1.94.61,2.45a1.41,1.41,0,0,1-1.22.39,12.6,12.6,0,0,1,3.19,3l2.25,1a14.86,14.86,0,0,0-.48,7.81c0,.13.06.28.11.45.35,1.24,1.31,3.65,4.76,7.48a44,44,0,0,0,10.78,8.8c1.84,1,4.64,2,10.25,4,1.18.42,2.28.81,3.32,1.15,5.82,2,9.53,2.75,12.82,3,.81.06,2.23.14,3.8.17a56.77,56.77,0,0,0,6.9-.22l.78-.08h0c2.89-.51,4-12.78,4.29-16.6a1.48,1.48,0,0,0,0-.21,6.73,6.73,0,0,1,.06-.91h0c.21-1.88.9-3.36,2-3.52.76-.11,1.48.13,2.85.86,0,0-.55-29.95-.41-31.5s0-19.26,0-19.26q.23-8.46.44-16.92a1.74,1.74,0,0,1-1-.89h0c-15.38-5.17-22.09-6.42-25.34-6.54a28.44,28.44,0,0,1-7.84-1.3,27.7,27.7,0,0,1-4.53-1.89Zm.61,39.48a3.95,3.95,0,1,1,3.92,4.38A4.17,4.17,0,0,1,128.31,86.55Zm27.19-5a3.45,3.45,0,1,1,3.43,3.89A3.68,3.68,0,0,1,155.5,81.53Z"/><path class="cls-5" d="M144.36,376.14c4.9,0,40.4.12,64.21,10.75A62.79,62.79,0,0,1,229,400.48c.69.71,4.58,6.42,9.59,13,8.51,11.22,10.26,65,11.71,72.77s0,48.58,0,48.58,2,16.74,4.05,29.91c0,0,0,.07,0,.1,10.81.59,30.82-1.29,30.82-1.29a239.15,239.15,0,0,1-1.51-27.11c-.51-45.29-3.87-104.9-3.87-104.9s-2.32-32.51-35.35-42.19-92-20.39-99.1-20.91C145.34,368.47,144.66,370,144.36,376.14Z"/><path class="cls-3" d="M138.12,46.39a44.86,44.86,0,0,0-10.42.68h0L134.25,49a15.21,15.21,0,0,0-5.17-1.66c4.19-.5,8.39.55,12.48,1.58l20.73,5.23c-4-2.74-12.19-6-20.67-7.42l-.1,0C140.45,46.57,139.32,46.46,138.12,46.39Z"/><path class="cls-3" d="M141.62,46.73c8.48,1.45,16.63,4.68,20.67,7.42l1.65.42a70,70,0,0,0-12.33-5.37A55.84,55.84,0,0,0,141.62,46.73Z"/><path class="cls-9" d="M158.93,77.64a3.92,3.92,0,1,0,3.42,3.89A3.68,3.68,0,0,0,158.93,77.64Z"/><path class="cls-7" d="M158.34,266.94A39.6,39.6,0,0,0,154,235.06l-1.47,28.06,5.53,4.75.54-.75Z"/><rect class="cls-2" x="159.02" y="464.89" width="12" height="174.87"/><path class="cls-3" d="M161,129.25c-.28,3.82-1.4,16.09-4.29,16.6,2.21-.24,3.42-.42,4.29-1.12a8.59,8.59,0,0,0,2.34-3.74,16.91,16.91,0,0,0,1.17-4.34h0a7.34,7.34,0,0,1-2.91-3.58A11.5,11.5,0,0,1,161,129.25Z"/><path class="cls-8" d="M161.07,128.13a6.73,6.73,0,0,0-.06.91C161.05,128.52,161.07,128.19,161.07,128.13Z"/><path class="cls-3" d="M131.73,49.06a28.44,28.44,0,0,0,7.84,1.3c3.25.12,10,1.37,25.34,6.54h0a1.11,1.11,0,0,1-.09-.19,6.87,6.87,0,0,0-2.54-2.55l-20.73-5.23c-4.09-1-8.29-2.08-12.48-1.58A15.21,15.21,0,0,1,134.25,49l-6.55-1.92h0l-.5.1A27.7,27.7,0,0,0,131.73,49.06Z"/><path class="cls-8" d="M165.87,125.46c-1.37-.73-2.09-1-2.85-.86-1.05.16-1.74,1.64-2,3.52h0c0,.06,0,.39-.06.91a1.48,1.48,0,0,1,0,.21,11.5,11.5,0,0,0,.6,3.81,7.34,7.34,0,0,0,2.91,3.58h0a32.56,32.56,0,0,0,3.83,2.43l0,0a134.06,134.06,0,0,0,13.53,6.29c3.08,1.28,5.69,2.3,7.56,3l-.11.12,0,0a10.59,10.59,0,0,1-.45,4.51c-1.5,4.49-5.95,7-7.41,10.54a16.73,16.73,0,0,0-.82,2.84,6.2,6.2,0,0,0-.24,2.3,4.73,4.73,0,0,0,2,3.12l.32.09c1.48-2.26,6.32-7.94,6.32-7.94l6.17-7.35c-2.76,9.53-5.08,13.44-6.75,15.18a4.71,4.71,0,0,0-1.5,2.91c-.09,1.89,1.45,3.49,2.67,4.5l.28.08,0-.28c.26-2.07,5.36-7.1,5.36-7.1l5.1-5.93a5.08,5.08,0,0,1,.65,3.83,6.81,6.81,0,0,1-1.6,2.41,17.75,17.75,0,0,1-2.08,2c-1.09.94-2,3.23-1.14,9.18l.5,0a70,70,0,0,1,5.28-5.9l3.76-5.14a5.54,5.54,0,0,1,1,2.94,7.79,7.79,0,0,1-2.46,5.36,8.67,8.67,0,0,0-1.09,1.18,5.51,5.51,0,0,0-.7,2,11,11,0,0,0-.23,2.61c.24,2.83,3.62,5,3.91,5.15v.18c1.19,0,2.44-.14,3.53-.27,1.87-.22,3.3-.48,3.3-.48.29,2.89.67,7,1,12,.18,2.47.82,11.71.86,18.4a129.31,129.31,0,0,1-3.4,29.37l.33,11-11.81-12.71L185,231.76a28.61,28.61,0,0,1-2.89,9c-1.86,3.53-3.94,5.43-4.05,9.06a15.31,15.31,0,0,0,.79,4.63,89.65,89.65,0,0,0,5.72,14.68,52.48,52.48,0,0,0,6,9.77,49.45,49.45,0,0,0,9.47,8.74c6.12,1,9.92,5.54,15.06,9.11a26.8,26.8,0,0,1,3.2,2.51l1.13.69a28,28,0,0,0,7.32,3.56,25.48,25.48,0,0,0,8.76.29c4-.38,8-.91,12-1.6,2.26-.38,3.6-.62,5-1.63a9.86,9.86,0,0,0,3.53-4.83h0a140.47,140.47,0,0,0-3.32-14.65c-6-22.81-12.33-43.49-12.33-43.49l-14.84-49.35a30.65,30.65,0,0,0-2.41-12.45c-1.66-3.84-3.49-5.76-7.52-11.55-1.81-2.6-4.39-6.45-7.29-11.36a15.35,15.35,0,0,0-1.63-6.63c-2-3.94-5.33-5.83-8-7.3-5.54-3.08-8.31-2.38-17-5.66-2.66-1-4.76-2-6-2.59-1.48-.67-3.83-1.79-6.64-3.37C167.75,126.5,166.69,125.89,165.87,125.46Z"/><path class="cls-3" d="M178.9,173.43l.39,0a9.63,9.63,0,0,1-3.22-3.19,10.24,10.24,0,0,1-1.6-2.72c-.77-2.24,0-4.69.94-6.86a7.34,7.34,0,0,1,1.13-2,2.71,2.71,0,0,1,2-1,6.28,6.28,0,0,0-5.23,2.46,9,9,0,0,0-1.75,5.67,16.06,16.06,0,0,0,1.39,5.84,7.94,7.94,0,0,0,1.13,2,6,6,0,0,0,1.77,1.39,9.3,9.3,0,0,0,6.44.9,5.58,5.58,0,0,0-2.35-2,3,3,0,0,1-1.32-.27,8.24,8.24,0,0,1-1.79-1.2A4.65,4.65,0,0,0,178.9,173.43Z"/><path class="cls-3" d="M181.49,228c.66,2.43-.44,4.82-1,6-1.92,4-10.14,16.61-21.91,33.13l-.54.75,22.78,19.56c2.06-1.3,8.25.27,16.25,0a16.19,16.19,0,0,1,3,.18,49.45,49.45,0,0,1-9.47-8.74,52.48,52.48,0,0,1-6-9.77,89.65,89.65,0,0,1-5.72-14.68,15.31,15.31,0,0,1-.79-4.63c.11-3.63,2.19-5.53,4.05-9.06a28.61,28.61,0,0,0,2.89-9L181.7,228Z"/><path class="cls-4" d="M182,464.89c-5.22,21.68,5.42,62.71,7.75,82,.59,4.92,1.08,9.29,1.43,13.28l.49,0c1.08-2,3.91-7.62,4.69-11.5,1.29-6.45-5.68-36.13-6.52-54.19-.47-10.12.82-20.73,2.27-29.14l-2.27-.38Z"/><path class="cls-3" d="M178.52,157.66a2.71,2.71,0,0,0-2,1,7.34,7.34,0,0,0-1.13,2c-.92,2.17-1.71,4.62-.94,6.86a10.24,10.24,0,0,0,1.6,2.72,9.63,9.63,0,0,0,3.22,3.19l-.39,0,1,.54a5.58,5.58,0,0,1,2.35,2,9.3,9.3,0,0,1-6.44-.9,6,6,0,0,1-1.77-1.39,7.94,7.94,0,0,1-1.13-2,16.06,16.06,0,0,1-1.39-5.84,9,9,0,0,1,1.75-5.67A6.28,6.28,0,0,1,178.52,157.66Zm2.82-1s-5.39-.36-7,.71a8.79,8.79,0,0,0-3.42,4.09c-1,2-.81,5.17-.55,7.52a9.5,9.5,0,0,0,2.32,5.26,12.43,12.43,0,0,0,5.71,2.87,40.18,40.18,0,0,0,6.11-.26c-1-1.18-2.51-2.92-1.85-4.51h0s-5.34-.65-6.38-3.29-1.22-3.94.78-7.68a11,11,0,0,1,4-4.57A2.24,2.24,0,0,1,181.34,156.67Z"/><path class="cls-10" d="M187.13,628.77c-3.14,1.9.53,11.19.53,11.19l96.78,1.16s5.37.18,13.16.34h0a25.58,25.58,0,0,0,.39-2.61,54.43,54.43,0,0,0-2-10.31c-11.09-.12-104.46-1.08-108.29,0A2.57,2.57,0,0,0,187.13,628.77Z"/><path class="cls-3" d="M184.48,176.86a5.69,5.69,0,0,1,.8,1c.44.94,4.49,1.75,4.73,1.8,0-.11,0-.23,0-.35l-.28-.08c-1.22-1-2.76-2.61-2.67-4.5a4.71,4.71,0,0,1,1.5-2.91c1.67-1.74,4-5.65,6.75-15.18L189.15,164s-4.84,5.68-6.32,7.94a2.4,2.4,0,0,0-.2.39C182,173.94,183.46,175.68,184.48,176.86Z"/><path class="cls-3" d="M176.24,169.06c1,2.64,6.38,3.29,6.38,3.29h0a2.4,2.4,0,0,1,.2-.39l-.32-.09a4.73,4.73,0,0,1-2-3.12,6.2,6.2,0,0,1,.24-2.3,16.73,16.73,0,0,1,.82-2.84c1.46-3.59,5.91-6.05,7.41-10.54a10.59,10.59,0,0,0,.45-4.51l0,0q-4,4.07-8,8.14a2.24,2.24,0,0,0-.27.14,11,11,0,0,0-4,4.57C175,165.12,175.21,166.41,176.24,169.06Z"/><path class="cls-5" d="M191.2,560.88a11.09,11.09,0,0,0,4.46,1.86,44.28,44.28,0,0,0,5,.73c.37,0,.88,0,1.51,0,2.93,0,8.58-.2,16-.66,3.47-.21,7.34-.48,11.5-.8.15-1.16.27-1.82.27-1.82l5.16-74.62.77-11.19s5.18-45.35-8.51-68c-8-13.22-27.92-27.79-83.59-27.08-2.41,4.54-13,3-14.28,2.84l.17,51.86c3.8.11,42.59,1.22,52.41,0,10.32-1.29,14.19,10.84,12.9,16.78-.57,2.61-1.81,7.86-3,14.47-1.45,8.41-2.74,19-2.27,29.14.84,18.06,7.81,47.74,6.52,54.19-.78,3.88-3.61,9.46-4.69,11.5l-.49,0C191.16,560.39,191.18,560.63,191.2,560.88Z"/><path class="cls-3" d="M200.51,166l-5.1,5.93s-5.1,5-5.36,7.1l0,.28c0,.12,0,.24,0,.35.05,1.56,1.12,2.13,2,3.11s3.95,2.07,3.95,2.07a7.7,7.7,0,0,1,.84-1.33l-.5,0c-.85-5.95,0-8.24,1.14-9.18a17.75,17.75,0,0,0,2.08-2,6.81,6.81,0,0,0,1.6-2.41A5.08,5.08,0,0,0,200.51,166Z"/><path class="cls-11" d="M187,628.54l.14.23a2.57,2.57,0,0,1,.53-.23c3.83-1.09,97.2-.13,108.29,0a64.28,64.28,0,0,0-2.87-7.93c-5.93-13.54-20.77-12.77-45-19.61-.43-.12-.86-.25-1.27-.4C227.25,594,228.87,569,229.72,562c-4.16.32-8,.59-11.5.8l0,.4c2.22,4.82.61,10.32-3.3,12.79A9.59,9.59,0,0,1,203.57,575a9.28,9.28,0,0,1-2.1-3.65,9.64,9.64,0,0,1-.19-4.29s.07-.46.9-3.44v-.08c-.63,0-1.14,0-1.51,0a44.28,44.28,0,0,1-5-.73,11.09,11.09,0,0,1-4.46-1.86c1,11.22.89,19.42-.73,28.66C188.24,602.22,187,628.54,187,628.54Z"/><path class="cls-10" d="M218.22,562.84c-7.46.46-13.11.67-16,.66v.08c-.83,3-.9,3.44-.9,3.44a9.64,9.64,0,0,0,.19,4.29,9.28,9.28,0,0,0,2.1,3.65A9.59,9.59,0,0,0,214.94,576c3.91-2.47,5.52-8,3.3-12.79Z"/><path class="cls-3" d="M201.79,191.15c.8.64,2.61.8,4.56.75v-.18c-.29-.17-3.67-2.32-3.91-5.15a11,11,0,0,1,.23-2.61,5.51,5.51,0,0,1,.7-2,8.67,8.67,0,0,1,1.09-1.18,7.79,7.79,0,0,0,2.46-5.36,5.54,5.54,0,0,0-1-2.94l-3.76,5.14a70,70,0,0,0-5.28,5.9,7.7,7.7,0,0,0-.84,1.33,1.36,1.36,0,0,0-.14.51C195.86,186.86,199.66,189.44,201.79,191.15Z"/><path class="cls-8" d="M200.09,287.62c3.28,2.41,6.77,4.56,10.23,6.69q4,2.46,8,4.93a26.8,26.8,0,0,0-3.2-2.51C210,293.16,206.21,288.6,200.09,287.62Z"/><path class="cls-3" d="M209.88,191.63q.51,17.07,1,34.13l.77,25.16a129.31,129.31,0,0,0,3.4-29.37c0-6.69-.68-15.93-.86-18.4-.35-5-.73-9.11-1-12C213.18,191.15,211.75,191.41,209.88,191.63Z"/><path class="cls-4" d="M143.82,379.33c55.67-.71,75.59,13.86,83.59,27.08,13.69,22.65,8.51,68,8.51,68l-.77,11.19c-.18,2.51,3.22,24.29,3.32,26.81s5.13,24.58,7.74,31.94c1.67,4.69,2.16,12.7,2.31,19.61a19.18,19.18,0,0,0,5.83.91s0-.07,0-.1c-2-13.17-4.05-29.91-4.05-29.91s1.45-40.84,0-48.58-3.2-61.55-11.71-72.77c-5-6.61-8.9-12.32-9.59-13a62.79,62.79,0,0,0-20.41-13.59c-23.81-10.63-59.31-10.76-64.21-10.75,0,.41,0,.84-.05,1.3A4.33,4.33,0,0,1,143.82,379.33Z"/><path class="cls-3" d="M213,318.06c-9.22-1.59-16.72-2.42-21.57-2.87-15.59-1.46-26.69-.93-57.64-2-5.34-.19-10.69-.37-16-1.05-4.65-.6-9.24-1.57-13.9-2-8.91-.88-17.88.11-26.81.78a288.22,288.22,0,0,1-33.38.74c-1.7-.06-5.59.47-9.38-1.7A15.61,15.61,0,0,1,28,302.41h0A34.85,34.85,0,0,0,30.37,312c5.29,12,20,8.26,20,8.26h55.39v-1.55l107.61.38A2.69,2.69,0,0,0,213,318.06Z"/><path class="cls-3" d="M217.7,309.61a30.93,30.93,0,0,0,6.45,5.9,30.27,30.27,0,0,0,7,3.54v.06l19.45.07a30,30,0,0,0,3.82-6.37c2.41-5.5,2.69-10.83,1.76-17.09a9.86,9.86,0,0,1-3.53,4.83c-1.44,1-2.78,1.25-5,1.63-4,.69-8,1.22-12,1.6a25.48,25.48,0,0,1-8.76-.29,28,28,0,0,1-7.32-3.56l-1.13-.69c2.54,2.39,2.3,3.94,2.56,7.3C221.15,309.67,219,309.8,217.7,309.61Z"/><path class="cls-10" d="M246.78,600.59c.41.15.84.28,1.27.4,24.26,6.84,39.1,6.07,45,19.61a64.28,64.28,0,0,1,2.87,7.93h8.27a21.83,21.83,0,0,0-2.65-7.84c-4.16-6.48-20.52-16.06-24.29-17.81s-18.58-15.58-21-27c-.6-2.81-1.26-6.72-1.93-11a19.18,19.18,0,0,1-5.83-.91c.09,3.92.07,7.48.11,9.9C248.73,580.45,246.83,600.07,246.78,600.59Z"/><path class="cls-11" d="M285.17,563.58s-20,1.88-30.82,1.29c.67,4.3,1.33,8.21,1.93,11,2.42,11.42,17.22,25.26,21,27s20.13,11.33,24.29,17.81a21.83,21.83,0,0,1,2.65,7.84h49.7a16.08,16.08,0,0,0-8.71-17.23c-11.22-6.06-42.71-13.8-48.77-23C292,581.62,287.47,581.22,285.17,563.58Z"/><path class="cls-10" d="M297,628.54H296a54.43,54.43,0,0,1,2,10.31,25.58,25.58,0,0,1-.39,2.61h0l6.32.1h1a68,68,0,0,0-.74-13Z"/><path class="cls-10" d="M353.92,628.54h-49.7a68,68,0,0,1,.74,13h.51c20,.23,47.42-.07,49.62-3.35C358.58,633,353.92,628.54,353.92,628.54Z"/><polygon class="cls-2" points="371.92 341.89 371.92 640.86 384.7 641.45 384.18 341.89 371.92 341.89"/><path class="cls-12" d="M130,153.1a39.52,39.52,0,0,1-4.52-1.71,38.44,38.44,0,0,1-11.94-8.45,39,39,0,0,1-10.25-21.43"/><path class="cls-12" d="M92.54,166a17.36,17.36,0,0,0,2.66-3.31c2.06-3.32,2.43-6.5,2.8-10a44.92,44.92,0,0,0,.07-8.73,51.4,51.4,0,0,0-3.21-13.89"/><path class="cls-12" d="M101.7,96a46,46,0,0,1-1.49,4.92c-1,2.83-1.71,3.87-1.38,5.52.26,1.32,1,1.94.61,2.45a1.41,1.41,0,0,1-1.22.39"/><path class="cls-13" d="M184.48,176.86a40.18,40.18,0,0,1-6.11.26,12.43,12.43,0,0,1-5.71-2.87,9.5,9.5,0,0,1-2.32-5.26c-.26-2.35-.45-5.52.55-7.52a8.79,8.79,0,0,1,3.42-4.09c1.64-1.07,7-.71,7-.71a2.24,2.24,0,0,0-.27.14,11,11,0,0,0-4,4.57c-2,3.74-1.81,5-.78,7.68s6.38,3.29,6.38,3.29"/><path class="cls-13" d="M231.12,319.05a30.27,30.27,0,0,1-7-3.54,30.93,30.93,0,0,1-6.45-5.9"/><path class="cls-12" d="M200.09,287.62a49.45,49.45,0,0,1-9.47-8.74,52.48,52.48,0,0,1-6-9.77,89.65,89.65,0,0,1-5.72-14.68,15.31,15.31,0,0,1-.79-4.63c.11-3.63,2.19-5.53,4.05-9.06a28.61,28.61,0,0,0,2.89-9c0-.12,0-.24.05-.36"/><path class="cls-12" d="M256.15,295.72a9.86,9.86,0,0,1-3.53,4.83c-1.44,1-2.78,1.25-5,1.63-4,.69-8,1.22-12,1.6a25.48,25.48,0,0,1-8.76-.29,28,28,0,0,1-7.32-3.56l-1.13-.69"/><path class="cls-12" d="M211.58,261.64q.3,8.44.61,16.89"/><path class="cls-12" d="M213.18,191.15c.29,2.89.67,7,1,12,.18,2.47.82,11.71.86,18.4a129.31,129.31,0,0,1-3.4,29.37,0,0,0,0,0,0,0"/><path class="cls-12" d="M205.81,172.39l.07.11a5.54,5.54,0,0,1,1,2.94,7.79,7.79,0,0,1-2.46,5.36,8.67,8.67,0,0,0-1.09,1.18,5.51,5.51,0,0,0-.7,2,11,11,0,0,0-.23,2.61c.24,2.83,3.62,5,3.91,5.15"/><path class="cls-12" d="M200.51,166a5.08,5.08,0,0,1,.65,3.83,6.81,6.81,0,0,1-1.6,2.41,17.75,17.75,0,0,1-2.08,2c-1.09.94-2,3.23-1.14,9.18"/><path class="cls-12" d="M195.32,156.67c-2.76,9.53-5.08,13.44-6.75,15.18a4.71,4.71,0,0,0-1.5,2.91c-.09,1.89,1.45,3.49,2.67,4.5"/><path class="cls-12" d="M189.39,148.56a10.59,10.59,0,0,1-.45,4.51c-1.5,4.49-5.95,7-7.41,10.54a16.73,16.73,0,0,0-.82,2.84,6.2,6.2,0,0,0-.24,2.3,4.73,4.73,0,0,0,2,3.12"/><path class="cls-12" d="M178.55,157.66h0a6.28,6.28,0,0,0-5.23,2.46,9,9,0,0,0-1.75,5.67,16.06,16.06,0,0,0,1.39,5.84,7.94,7.94,0,0,0,1.13,2,6,6,0,0,0,1.77,1.39,9.3,9.3,0,0,0,6.44.9,5.58,5.58,0,0,0-2.35-2l-1-.54h0a17.21,17.21,0,0,1-4.2-3.19,3.69,3.69,0,0,0,.44,1.55,3.57,3.57,0,0,1-1.13-1.63"/><path class="cls-12" d="M180.7,173.83a2.29,2.29,0,0,1-.78.14,3,3,0,0,1-1.32-.27,8.24,8.24,0,0,1-1.79-1.2,4.65,4.65,0,0,0,2.09.93l.39,0a9.63,9.63,0,0,1-3.22-3.19,10.24,10.24,0,0,1-1.6-2.72c-.77-2.24,0-4.69.94-6.86a7.34,7.34,0,0,1,1.13-2,2.71,2.71,0,0,1,2-1"/><path class="cls-12" d="M213,318.06c-9.22-1.59-16.72-2.42-21.57-2.87-15.59-1.46-26.69-.93-57.64-2-5.34-.19-10.69-.37-16-1.05-4.65-.6-9.24-1.57-13.9-2-8.91-.88-17.88.11-26.81.78a288.22,288.22,0,0,1-33.38.74c-1.7-.06-5.59.47-9.38-1.7A15.61,15.61,0,0,1,28,302.41"/><path class="cls-12" d="M77.68,264.31a57.09,57.09,0,0,1-15,5.1c-7.27,1.37-16.45,2.9-16.45,2.9A21.62,21.62,0,0,0,38.73,275a18.84,18.84,0,0,0-4.45,4.16,28.8,28.8,0,0,0-4.07,5.62,23.48,23.48,0,0,0-2.68,10.76"/><path class="cls-13" d="M151,293l1.56-29.88L154,235.06a39.6,39.6,0,0,1,4.35,31.88"/><path class="cls-14" d="M135,172s2.45,12.9-1.42,16.32-13.42,2.78-18.58,0S100.57,175.18,97.73,172c-1.45-1.66-3.52-4.05-5.19-6-1.19-1.39-2.18-2.55-2.61-3a1.47,1.47,0,0,0-.1-.13"/><path class="cls-13" d="M135,172l.55.38c14.3,9.88,22,19,26.42,25.81,4.2,6.45,13.54,23.17,17.64,26.94a6.19,6.19,0,0,1,1.74,2.55l.12.38c.66,2.43-.44,4.82-1,6-1.92,4-10.14,16.61-21.91,33.13l-.54.75"/><path class="cls-13" d="M180.83,287.43l-22.78-19.56-5.53-4.75"/><path class="cls-12" d="M161,129.25c-.28,3.82-1.4,16.09-4.29,16.6"/><path class="cls-13" d="M212.36,317c3,1.37,5.44,1.58,6.35.48.22-.26.59-.75.31-2.23a16.55,16.55,0,0,0-2.2-5.84,11.58,11.58,0,0,0-2.31-2.67,14.37,14.37,0,0,0-4.27-2.27,30.51,30.51,0,0,0-12.12-1.8"/><path class="cls-13" d="M213.34,319.05a2.69,2.69,0,0,0-.3-1,4.85,4.85,0,0,0-.68-1.06c-1.63-2-6-4.91-17.6-5.56"/><path class="cls-13" d="M61.08,320.22H50.34s-4.79,55.18-5.13,58.06"/><path class="cls-13" d="M216.82,309.41a6.34,6.34,0,0,0,.88.2c1.28.19,3.45.06,3.21-3.07-.26-3.36,0-4.91-2.56-7.3a26.8,26.8,0,0,0-3.2-2.51c-5.14-3.57-8.94-8.13-15.06-9.11a16.19,16.19,0,0,0-3-.18c-8,.26-14.19-1.31-16.25,0a43.75,43.75,0,0,1-9.3,4.4,47.64,47.64,0,0,1-16.13,1.55c-1.06-.07-2.59-.2-4.44-.38-11.86-1.11-37-4-37-4L83.4,285.64,81,285.38H73.54l6-21.35,3.59-12.72c.81-1.75,1.45-2.58,1.92-2.5q2.52.48-1.67,36.83"/><path class="cls-13" d="M27.53,295.56a125.38,125.38,0,0,1,2.84-29.28c2.07-8,4.39-11.87,4.39-11.87s6.6-27.1,6.59-31.74S44,198,53.14,188.28s35.72-23.42,35.72-23.42"/><path class="cls-12" d="M27.53,295.57h0"/><path class="cls-13" d="M50.34,320.22S35.66,324,30.37,312A34.85,34.85,0,0,1,28,302.41c-.26-2.19-.42-4.49-.48-6.84"/><path class="cls-13" d="M79.56,264s-.69.14-1.88.28a44.3,44.3,0,0,1-12.6-.28c-7.74-1.36-19.35-4.2-22.06-5.36-.67-.29-1.51-.69-2.4-1.13-2.71-1.37-5.86-3.13-5.86-3.13"/><line class="cls-13" x1="145.76" y1="341.89" x2="145.34" y2="368.47"/><path class="cls-13" d="M117.6,382.8l-72.33-4.52"/><path class="cls-13" d="M45.2,378.37a48.91,48.91,0,0,0-2.94,28.27s3.63,18.13,18.44,29a29.77,29.77,0,0,0,9.8,5,33.59,33.59,0,0,0,9.1,1.09c4.48.13,10.44.2,17.61,0"/><path class="cls-13" d="M45.3,378l-.08.3v0a.11.11,0,0,0,0,.05h0"/><polyline class="cls-13" points="105.73 320.22 61.08 320.22 61.02 320.45"/><path class="cls-13" d="M353.92,628.54s4.66,4.45,1.17,9.68c-2.2,3.28-29.6,3.58-49.62,3.35h-1.55l-6.32-.1c-7.79-.16-13.16-.34-13.16-.34L187.66,640s-3.67-9.29-.53-11.19a2.57,2.57,0,0,1,.53-.23c3.83-1.09,97.2-.13,108.29,0h58Z"/><path class="cls-13" d="M143.82,379.33c55.67-.71,75.59,13.86,83.59,27.08,13.69,22.65,8.51,68,8.51,68l-.77,11.19L230,560.22s-.12.66-.27,1.82c-.85,7-2.47,32,17.06,38.55.41.15.84.28,1.27.4,24.26,6.84,39.1,6.07,45,19.61a64.28,64.28,0,0,1,2.87,7.93,54.43,54.43,0,0,1,2,10.31,25.58,25.58,0,0,1-.39,2.61"/><path class="cls-13" d="M246.78,600.6h0c.05-.52,1.95-20.14,1.85-26.73,0-2.42,0-6-.11-9.9-.15-6.91-.64-14.92-2.31-19.61-2.61-7.36-7.64-29.42-7.74-31.94s-3.5-24.3-3.32-26.81"/><path class="cls-13" d="M187,628.54s1.25-26.32,3.48-39c1.62-9.24,1.7-17.44.73-28.66,0-.25,0-.49-.07-.74-.35-4-.84-8.36-1.43-13.28-2.33-19.26-13-60.29-7.75-82"/><path class="cls-13" d="M285.17,563.58s-20,1.88-30.82,1.29a19.18,19.18,0,0,1-5.83-.91"/><path class="cls-14" d="M191.2,560.88a11.09,11.09,0,0,0,4.46,1.86,44.28,44.28,0,0,0,5,.73c.37,0,.88,0,1.51,0,2.93,0,8.58-.2,16-.66,3.47-.21,7.34-.48,11.5-.8"/><path class="cls-13" d="M129.41,382.15l.13,0c1.28.2,11.87,1.7,14.28-2.84a4.33,4.33,0,0,0,.49-1.89c0-.46,0-.89.05-1.3.3-6.11,1-7.67,1-7.67,7.1.52,66.07,11.23,99.1,20.91s35.35,42.19,35.35,42.19,3.36,59.61,3.87,104.9a239.15,239.15,0,0,0,1.51,27.11c2.3,17.64,6.82,18,11.27,24.77,6.06,9.16,37.55,16.9,48.77,23a16.08,16.08,0,0,1,8.71,17.23"/><polyline class="cls-13" points="159.02 464.89 130.37 464.89 130.37 441.76 189.79 441.76 189.79 464.89 181.95 464.89 171.02 464.89"/><polyline class="cls-13" points="117.6 464.02 24.12 464.89 24.12 441.76 79.6 441.76 97.21 441.76 117.6 441.76"/><line class="cls-13" x1="10.95" y1="464.02" x2="10.95" y2="464.89"/><polygon class="cls-13" points="10.95 464.02 0.5 464.02 0.5 441.76 10.95 440.99 10.95 464.02"/><rect class="cls-13" x="159.02" y="464.89" width="12" height="174.87"/><polyline class="cls-13" points="129.41 341.89 129.54 382.17 129.71 434.03 129.81 464.89 130.37 639.76 117.6 639.76 117.6 464.02 117.6 441.76 117.6 440.99 117.6 433.89 117.6 382.8 117.6 341.89"/><polyline class="cls-13" points="371.92 341.89 371.92 640.86 384.7 641.45 384.18 341.89"/><polygon class="cls-13" points="250.57 319.18 397.86 319.7 397.86 341.89 384.18 341.89 371.92 341.89 145.76 341.89 129.41 341.89 117.6 341.89 105.73 341.89 105.73 320.22 105.73 318.67 213.34 319.05 231.12 319.11 250.57 319.18"/><polygon class="cls-13" points="23.79 639.31 11.53 639.31 10.95 312.86 24.12 312.86 23.79 639.31"/><path class="cls-13" d="M218.24,563.24c2.22,4.82.61,10.32-3.3,12.79A9.59,9.59,0,0,1,203.57,575a9.28,9.28,0,0,1-2.1-3.65,9.64,9.64,0,0,1-.19-4.29s.07-.46.9-3.44"/><path class="cls-13" d="M181.7,228l3.31,3.8,15.17,17.42L212,261.89l-.33-11-.77-25.16q-.51-17.06-1-34.13"/><path class="cls-13" d="M190,179.69h0c-.24-.05-4.29-.86-4.73-1.8a5.69,5.69,0,0,0-.8-1c-1-1.18-2.51-2.92-1.85-4.51a2.4,2.4,0,0,1,.2-.39c1.48-2.26,6.32-7.94,6.32-7.94l6.17-7.35"/><path class="cls-13" d="M213.18,191.15s-1.43.26-3.3.48c-1.09.13-2.34.24-3.53.27-1.95,0-3.76-.11-4.56-.75-2.13-1.71-5.93-4.29-5.93-5.77a1.36,1.36,0,0,1,.14-.51,7.7,7.7,0,0,1,.84-1.33,70,70,0,0,1,5.28-5.9l3.76-5.14.11-.15"/><path class="cls-13" d="M168.38,139.1a134.06,134.06,0,0,0,13.53,6.29c3.08,1.28,5.69,2.3,7.56,3l-.11.12q-4,4.07-8,8.14"/><path class="cls-13" d="M164.51,136.65a32.56,32.56,0,0,0,3.83,2.43"/><path class="cls-13" d="M256.15,295.71a140.47,140.47,0,0,0-3.32-14.65c-6-22.81-12.33-43.49-12.33-43.49l-14.84-49.35a30.65,30.65,0,0,0-2.41-12.45c-1.66-3.84-3.49-5.76-7.52-11.55-1.81-2.6-4.39-6.45-7.29-11.36a15.35,15.35,0,0,0-1.63-6.63c-2-3.94-5.33-5.83-8-7.3-5.54-3.08-8.31-2.38-17-5.66-2.66-1-4.76-2-6-2.59-1.48-.67-3.83-1.79-6.64-3.37-1.44-.81-2.5-1.42-3.32-1.85-1.37-.73-2.09-1-2.85-.86-1.05.16-1.74,1.64-2,3.52h0a6.73,6.73,0,0,0-.06.91,1.48,1.48,0,0,1,0,.21,11.5,11.5,0,0,0,.6,3.81,7.34,7.34,0,0,0,2.91,3.58"/><path class="cls-12" d="M256.15,295.72h0"/><path class="cls-13" d="M250.57,319.18a30,30,0,0,0,3.82-6.37c2.41-5.5,2.69-10.83,1.76-17.09"/><path class="cls-13" d="M88.86,164.86s0,0,0,0c.38-.65.73-1.29,1.06-1.92a51.33,51.33,0,0,0,4.35-11.48,50.05,50.05,0,0,0,.58-21.38"/><path class="cls-13" d="M135.57,172.34a22.75,22.75,0,0,1-4.62-8.61c-.21-.75-.38-1.49-.51-2.21a30.52,30.52,0,0,1-.44-8.42,34.76,34.76,0,0,1,1.39-7.27c.36-1.2.74-2.18,1-2.85"/><path class="cls-13" d="M103.66,113.25a14.86,14.86,0,0,0-.48,7.81c0,.13.06.28.11.45.35,1.24,1.31,3.65,4.76,7.48a44,44,0,0,0,10.78,8.8c1.84,1,4.64,2,10.25,4,1.18.42,2.28.81,3.32,1.15,5.82,2,9.53,2.75,12.82,3,.81.06,2.23.14,3.8.17a56.77,56.77,0,0,0,6.9-.22l.78-.08h0c2.21-.24,3.42-.42,4.29-1.12a8.59,8.59,0,0,0,2.34-3.74,16.91,16.91,0,0,0,1.17-4.34h0"/><path class="cls-13" d="M165.87,125.46s-.55-29.95-.41-31.5,0-19.26,0-19.26q.23-8.46.44-16.92"/><path class="cls-13" d="M146.83,79.64c2,9.12,5.43,14.64,8.25,18,1.14,1.4,4.43,5.14,3.43,6.71-.42.65-1.55.87-3.82,1.33a23,23,0,0,1-2.78.38l-6.92.54"/><path class="cls-13" d="M158.51,123.76a2.93,2.93,0,0,1-1.81.82c-1.26.15-19.65,0-19.65,0s-1.06-.33-1.35-.82"/><path class="cls-13" d="M139.92,74s-10.19,7.49-20,7.23"/><path class="cls-13" d="M165.46,67.83s-2.05-4.9-5.41-3S153,75.18,153,75.18"/><path class="cls-13" d="M141.62,46.73c8.48,1.45,16.63,4.68,20.67,7.42a6.87,6.87,0,0,1,2.54,2.55,1.11,1.11,0,0,0,.09.19,1.74,1.74,0,0,0,1,.89c2.75,1.07,9.32-3.23,11.62-10.47,2.71-8.51,4.42-11.48,0-19.74S164,6.32,151.75,2.75s-26.15-2.36-35.18,0-13.29,14-20.45,14.37S77.73,22,73.08,26,57.21,37.83,58.76,52.35,64,89.12,70.37,103.25s7.94,21.87,15.29,24.19a89.88,89.88,0,0,0,9.2,2.62s1-16.3.63-17.84,1.53-.39,3.53,0,2.39.06,2.39.06a12.6,12.6,0,0,0-3.19-3,11.45,11.45,0,0,0-4-1.74c-4.64-1-13.16-4.71-14.06-9.87s0-14.84,0-14.84,1-4.9,4.39-5.16a13.43,13.43,0,0,1,5.26.45,45.52,45.52,0,0,1,7.35,14.42c.42,1.47,1,4,2.5,4.3a2.47,2.47,0,0,0,2-.85,14.21,14.21,0,0,0,2.36-3l5-32.54S119.82,46,133.41,46h.27a52.62,52.62,0,0,1,7.84.75"/><path class="cls-13" d="M155.5,81.53a3.45,3.45,0,1,0,3.43-3.89A3.68,3.68,0,0,0,155.5,81.53Z"/><path class="cls-13" d="M128.31,86.55a3.95,3.95,0,1,0,3.92-4.38A4.17,4.17,0,0,0,128.31,86.55Z"/><path class="cls-15" d="M131.85,86.73a1.47,1.47,0,1,0,1.47-1.46A1.47,1.47,0,0,0,131.85,86.73Z"/><circle class="cls-15" cx="159.71" cy="81.53" r="1.33"/></g></g></svg>